<?xml version="1.0" encoding="UTF-8" standalone="no"?>
<svg
   xmlns:dc="http://purl.org/dc/elements/1.1/"
   xmlns:cc="http://creativecommons.org/ns#"
   xmlns:rdf="http://www.w3.org/1999/02/22-rdf-syntax-ns#"
   xmlns:svg="http://www.w3.org/2000/svg"
   xmlns="http://www.w3.org/2000/svg"
   viewBox="0 0 1123.7067 794.15997"
   height="794.15997"
   width="1123.7067"
   xml:space="preserve"
   id="svg2"
   version="1.1"><metadata
     id="metadata8"><rdf:RDF><cc:Work
         rdf:about=""><dc:format>image/svg+xml</dc:format><dc:type
           rdf:resource="http://purl.org/dc/dcmitype/StillImage" /></cc:Work></rdf:RDF></metadata><defs
     id="defs6" /><g
     transform="matrix(1.3333333,0,0,-1.3333333,0,794.16)"
     id="g10"><g
       transform="scale(0.1)"
       id="g12"><path
         id="path14"
         style="fill:#9adeeb;fill-opacity:1;fill-rule:nonzero;stroke:none"
         d="M 5.10156,2284.56 H 8427.7716 V 5956.21 H 5.10156 Z" /><path
         id="path16"
         style="fill:#486abc;fill-opacity:1;fill-rule:nonzero;stroke:none"
         d="M 5.10156,0.742188 H 8427.7716 V 2284.5622 H 5.10156 Z" /><path
         id="path18"
         style="fill:#497dc8;fill-opacity:1;fill-rule:nonzero;stroke:none"
         d="m 6326.9,851.941 c -137.83,0 -225.82,51.438 -225.82,51.438 -94.01,-13.008 -165.67,-18.027 -220.33,-18.027 -185.85,0 -174.93,58.109 -174.93,58.109 -33.58,-3.063 -62.83,-4.461 -88.26,-4.461 -284.14,0 -89.94,175.05 -89.94,175.05 -77.95,-10.48 -138.01,-14.54 -184.34,-14.54 -159.82,0 -155.84,48.37 -155.84,48.37 -90.4,-6.07 -168.55,-8.75 -236.14,-8.75 -520.81,0 -412.28,159.49 -412.28,159.49 -91.45,-12.11 -175.68,-17.39 -253.22,-17.39 -534.41,0 -746.42,251.31 -746.42,251.31 -155.41,-18.84 -272.26,-26.09 -360.1,-26.09 -293.29,0 -262.94,80.82 -262.94,80.82 -252.05,-32.84 -425.68,-44.78 -544.96,-44.78 -317.91,0 -249.55,84.85 -249.55,84.85 -62.37,-4.5 -115.67,-6.49 -161.27,-6.49 -362.23,0.01 -234.38,126.21 -234.38,126.21 C 685.996,1753.11 15.1094,1900.94 15.1094,1900.94 v 383.59 L 4902.49,2267.11 c 80.59,-30.67 250.69,-104.99 154.48,-154.59 -58.76,-30.29 74.02,-86.1 40.42,-88.06 -200.09,-11.79 -211.3,-81.84 -211.3,-81.84 l 1.21,-18.22 236.77,-1.67 c 16.84,1.52 32.81,2.21 47.94,2.21 159.69,0 225.53,-77.1 225.53,-77.1 0.16,0 0.28,0 0.45,0 329.54,0 241.78,-140.25 241.78,-140.25 56.52,5.22 104.48,7.49 145.22,7.49 270.9,0 220.96,-100.4 220.96,-100.4 0.3,0 0.6,0 0.91,0 277.26,0 241.16,-187.82 241.16,-187.82 8.17,0.78 15.81,1.16 22.94,1.16 167.72,0 58.45,-208.98 58.45,-208.98 14.17,2.19 27.37,3.19 39.68,3.19 128.01,0 158.67,-108.18 158.67,-108.18 8.69,0.58 16.96,0.86 24.89,0.86 174.49,0 170.38,-134.738 170.38,-134.738 108.24,-27.16 -42.3,-107.543 -42.3,-107.543 -60.37,-15.438 -101.83,-20.68 -130.31,-20.68 -59.98,0 -62.37,23.231 -62.37,23.231 -58.73,-16.961 -112.98,-23.239 -161.15,-23.239" /><path
         id="path20"
         style="fill:#6f9fb8;fill-opacity:1;fill-rule:nonzero;stroke:none"
         d="m 5.10156,2284.56 v 0 650.28 c 0,0 74.59374,12.79 169.67944,12.79 110.926,0 249.742,-17.4 330.547,-92.83 0,0 75.598,-48.91 173.41,-48.91 48.914,0 103.375,12.23 156.742,48.91 0,0 142.403,208.5 318.24,208.5 83.68,0 174.92,-47.19 262.02,-186.53 0,0 87.77,-93.83 297.95,-93.83 55.39,0 119.24,6.51 192.27,22.97 0,0 134.59,115.98 344.5,115.98 138.25,0 309.16,-50.28 495.88,-217.13 0,0 107.37,-103.86 401.37,-103.86 205.83,0 503.11,50.87 919.22,223.9 0,0 570.26,561.03 900.4,800.75 0,0 244.59,298.08 582.49,298.08 168.97,0 361.24,-74.49 558.02,-298.08 0,0 98.66,-93.67 180.02,-93.67 31.57,0 60.53,14.1 80.12,53.26 0,0 77.94,66.81 201.51,66.81 110.7,0 258.02,-53.61 418.74,-256.89 0,0 400.1,909.97 748.72,909.97 45.11,0 89.28,-15.2 131.69,-49.58 0,0 42.25,-68.06 92.92,-68.06 53.95,0 117.44,77.12 149.69,395.7 0,0 78.48,443.59 198.6,443.59 35.92,0 75.54,-39.63 117.92,-142.62 V 2894.82 c -141.16,160.09 -228.98,200.11 -228.98,200.11 -5.59,2.09 -11.85,3.06 -18.67,3.06 -91.01,0 -281.46,-173.15 -281.46,-173.15 -140.88,273.21 -263.52,351.51 -357.86,351.51 -126.76,0 -202.4,-141.41 -202.4,-141.41 -50.02,-260.12 -500.24,-380.16 -500.24,-380.16 -230.09,230.1 -660.28,270.11 -660.28,270.11 -12.11,1.87 -24.57,2.75 -37.4,2.75 -262.71,0 -662.93,-372.91 -662.93,-372.91 -163.43,30.01 -287.9,40.01 -381.28,40.01 -186.71,0 -248.98,-40.01 -248.98,-40.01 -29.79,-22.34 -72.03,-79.29 -113.34,-142.02 -52.57,7.33 -108.56,10.45 -165.76,10.45 -321.7,0 -681.34,-98.53 -681.34,-98.53 -47.45,-15.82 -99.99,-21.94 -152.92,-21.94 -181.43,0 -367.32,71.96 -367.32,71.96 -66.7,36.69 -137.83,48.91 -203.05,48.91 -130.42,0 -237.14,-48.91 -237.14,-48.91 h -340.16 l -170.07,235.66 c -60.03,-54.47 -180.09,-235.66 -180.09,-235.66 l -40.01,117.82 -90.04,-117.82 c -40.02,190.1 -180.08,235.66 -180.08,235.66 -140.07,-64.48 -380.18,-192.68 -380.18,-192.68 -40.01,63.01 -150.06,147.12 -150.06,147.12 -180.09,-60.06 -240.11,-147.12 -240.11,-147.12 -10.01,63.01 -165.073,96.35 -165.073,96.35 -18.344,25.6 -33.348,34.13 -45.207,34.13 -23.711,0 -34.832,-34.13 -34.832,-34.13 -10.965,2.17 -20.278,3.13 -28.188,3.13 -62.441,0 -36.836,-59.93 -36.836,-59.93 -10.386,-31.15 -26.089,-39.54 -40,-39.54 -16.238,0 -30.031,11.44 -30.031,11.44 -81.262,90.26 -136.605,118.72 -174.101,118.72 -64.063,0 -76.016,-83.12 -76.016,-83.12 -16.391,-25.76 -38.797,-35.62 -63.527,-35.62 -80.922,0 -186.579,105.67 -186.579,105.67 -43.359,56.69 -87.816,75.58 -127.839,75.58 -80.0316,0 -142.28944,-75.58 -142.28944,-75.58 v -350.17" /><path
         id="path22"
         style="fill:#3e4da9;fill-opacity:1;fill-rule:nonzero;stroke:none"
         d="m 8427.77,2254.54 -3525.28,12.57 c -23.11,8.79 -38.87,13.99 -38.87,13.99 L 15.1094,2284.56 H 4597.16 v 0 h 3830.61 v -30.02 M 15.1094,2284.53 5.10156,2284.56 H 15.1094 v -0.03" /><path
         id="path24"
         style="fill:#3d57a9;fill-opacity:1;fill-rule:nonzero;stroke:none"
         d="M 4902.49,2267.11 15.1094,2284.53 v 0.03 L 4863.62,2281.1 c 0,0 15.76,-5.2 38.87,-13.99" /><path
         id="path26"
         style="fill:#4c2c50;fill-opacity:1;fill-rule:nonzero;stroke:none"
         d="m 5.10156,2634.73 c 0,0 140.06244,170.06 270.12844,0 0,0 180.079,-180.1 250.106,-70.05 0,0 30.012,208.88 250.117,-35.6 0,0 47.516,-39.43 70.031,28.1 0,0 -32.519,76.06 65.024,56.8 0,0 25.015,76.78 80.039,0 0,0 155.063,-33.34 165.073,-96.35 0,0 60.02,87.06 240.11,147.12 0,0 110.05,-84.11 150.06,-147.12 0,0 240.11,128.2 380.18,192.68 0,0 140.06,-45.56 180.08,-235.66 l 90.04,117.82 40.01,-117.82 c 0,0 120.06,181.19 180.09,235.66 l 170.07,-235.66 h 340.16 c 0,0 240.1,110.06 440.19,0 0,0 310.14,-120.06 520.24,-50.02 0,0 730.32,200.09 1040.48,30 0,0 280.11,-3.84 320.12,-51.95 l 140.07,-118.12 H 5.10156 v 350.17" /><path
         id="path28"
         style="fill:#6f6b93;fill-opacity:1;fill-rule:nonzero;stroke:none"
         d="M 8427.77,2284.56 H 5387.52 l -140.07,118.12 c -40.01,48.11 -320.12,51.95 -320.12,51.95 -53.82,29.51 -120.27,47.88 -193.38,58.08 41.31,62.73 83.55,119.68 113.34,142.02 0,0 62.27,40.01 248.98,40.01 93.38,0 217.85,-10 381.28,-40.01 0,0 400.22,372.91 662.93,372.91 12.83,0 25.29,-0.88 37.4,-2.75 0,0 430.19,-40.01 660.28,-270.11 0,0 450.22,120.04 500.24,380.16 0,0 75.64,141.41 202.4,141.41 94.34,0 216.98,-78.3 357.86,-351.51 0,0 190.45,173.15 281.46,173.15 6.82,0 13.08,-0.97 18.67,-3.06 0,0 87.82,-40.02 228.98,-200.11 v -610.26" /><path
         id="path30"
         style="fill:#5e528f;fill-opacity:1;fill-rule:nonzero;stroke:none"
         d="M 8427.77,2284.56 H 4597.16 v 0 h 3830.61" /><path
         id="path32"
         style="fill:#644772;fill-opacity:1;fill-rule:nonzero;stroke:none"
         d="m 5387.52,2284.56 h -790.36 c 0,0 67.07,122.29 136.79,228.15 73.11,-10.2 139.56,-28.57 193.38,-58.08 0,0 280.11,-3.84 320.12,-51.95 l 140.07,-118.12" /><path
         id="path34"
         style="fill:#67c530;fill-opacity:1;fill-rule:nonzero;stroke:none"
         d="m 5.10156,1584.25 c 0,0 1140.50844,300.12 2080.93844,-369.12 0,0 2511.12,218.56 3021.36,-1214.387812 H 5.10156 V 1584.25" /><path
         id="path36"
         style="fill:#77c92b;fill-opacity:1;fill-rule:nonzero;stroke:none"
         d="m 4887.29,1924.4 c 0,0 -30.01,80.04 210.1,100.06 0,0 60.03,110.01 220.11,130.04 0,0 120.04,130.06 380.16,130.06 0,0 200.1,166.17 560.26,83.07 0,0 430.19,83.1 590.26,0 0,0 110.05,36.91 430.19,36.93 0,0 360.16,120.03 500.22,0 0,0 140.07,165.68 440.2,92.88 h 208.98 V 1924.4 H 4887.29" /><path
         id="path38"
         style="fill:#4eb738;fill-opacity:1;fill-rule:nonzero;stroke:none"
         d="m 5047.32,1924.4 c 0,0 -28.67,68.94 200.59,86.16 0,0 57.33,94.78 210.16,112.03 0,0 114.63,111.99 362.97,111.99 0,0 191.06,143.12 534.95,71.55 0,0 410.73,71.57 563.58,0 0,0 105.07,31.79 410.75,31.83 0,0 343.89,103.36 477.63,0 0,0 133.73,142.66 420.27,79.98 h 199.55 V 1924.4 H 5047.32" /><path
         id="path40"
         style="fill:#367631;fill-opacity:1;fill-rule:nonzero;stroke:none"
         d="m 5047.32,1924.4 c 0,0 -28.67,16.14 200.59,20.17 0,0 57.33,22.19 210.16,26.23 0,0 114.63,26.2 362.97,26.2 0,0 191.06,33.52 534.95,16.77 0,0 410.73,16.75 563.58,0 0,0 105.07,7.44 410.75,7.44 0,0 343.89,24.23 477.63,0 0,0 133.73,33.42 420.27,18.72 h 199.55 V 1924.4 H 5047.32" /><path
         id="path42"
         style="fill:#77c92b;fill-opacity:1;fill-rule:nonzero;stroke:none"
         d="m 5787.71,1924.4 c 0,0 447.91,-160.07 869.22,-220.1 0,0 431.36,-140.05 611.42,-140.05 0,0 460.22,-160.08 730.35,-160.08 0,0 387.95,-160.08 429.07,-100.04 v 800.33 c 0,0 -178.96,140.07 -449.07,0 0,0 -230.13,65.06 -490.24,-35 0,0 -99.75,124.59 -500.23,22.51 0,0 -728.66,109.23 -1200.52,-167.57" /><path
         id="path44"
         style="fill:#4eb738;fill-opacity:1;fill-rule:nonzero;stroke:none"
         d="m 5787.71,1924.22 c 0,0 454.18,-165.11 875.53,-220.55 0,0 433.4,-148.66 613.48,-148.66 0,0 444.48,-163.35 714.61,-163.35 0,0 387.97,-147.9 429.09,-92.41 v 739.41 c 0,0 -178.96,129.4 -449.1,0 0,0 -230.1,60.07 -490.22,-32.34 0,0 -99.77,115.11 -500.22,20.78 0,0 -721.31,152.84 -1193.17,-102.88" /><path
         id="path46"
         style="fill:#367631;fill-opacity:1;fill-rule:nonzero;stroke:none"
         d="m 8213.81,1469.21 c 0,0 -270.14,30.02 -330.17,65.02 -60.03,35 -100.04,70.02 -200.09,40.01 -100.05,-30.02 -135.05,22.58 -185.07,77.6 -50.02,55.02 -253.45,43.72 -303.47,55.79 -50.04,12.08 -308.06,78.57 -338.08,77.95 -30.01,-0.61 -331.39,88.8 -331.39,88.8 -65.58,40.03 -230.12,53.77 -230.12,53.77 -85.03,60.01 -320.77,84.52 -320.77,84.52 l -58.12,-24.3 c -47.9,-7.77 -88.82,-32.31 -128.82,-63.97 0,0 447.91,-160.07 869.22,-220.1 0,0 431.36,-140.05 611.42,-140.05 0,0 460.22,-160.08 730.35,-160.08 0,0 387.95,-160.08 429.07,-100.04 v 140.07 h -58.89 l -155.07,25.01" /><path
         id="path48"
         style="fill:#67a930;fill-opacity:1;fill-rule:nonzero;stroke:none"
         d="m 5.10156,1415.35 c 0,0 1028.92844,251.8 1935.70844,-352.92 0,0 2164.18,502.55 3015.54,-1051.8597 L 15.5234,0 5.10156,1415.35" /><path
         id="path50"
         style="fill:#cfeff0;fill-opacity:1;fill-rule:nonzero;stroke:none"
         d="m 38.2617,2978.48 c 0,0 882.9263,894.32 1803.1383,514.21 0,0 714.85,322.73 1173.14,-119.23 0,0 351.15,363.8 911.76,234.85 0,0 167.61,267.08 518.72,32.48 0,0 619.42,68.58 412.26,-99 -377.37,-305.26 -620.25,-569.83 -790.35,-716.99 0,0 -932.39,-504.56 -1303.88,-140 -292.62,287.16 -568.32,247.92 -568.32,247.92 0,0 -2533.496,-550.92 -2156.4683,45.76" /><path
         id="path52"
         style="fill:#fdfddc;fill-opacity:1;fill-rule:nonzero;stroke:none"
         d="m 2536.24,5460.99 c 0,-69.07 -56,-125.05 -125.06,-125.05 h -460.21 c -69.06,0 -125.05,55.98 -125.05,125.05 0,69.06 55.99,125.05 125.05,125.05 h 460.21 c 69.06,0 125.06,-55.99 125.06,-125.05" /><path
         id="path54"
         style="fill:#fdfddc;fill-opacity:1;fill-rule:nonzero;stroke:none"
         d="m 3136.51,5305.92 c 0,-71.83 -58.23,-130.06 -130.06,-130.06 h -520.23 c -71.84,0 -130.06,58.23 -130.06,130.06 0,71.83 58.22,130.06 130.06,130.06 h 520.23 c 71.83,0 130.06,-58.23 130.06,-130.06" /><path
         id="path56"
         style="fill:#fdfddc;fill-opacity:1;fill-rule:nonzero;stroke:none"
         d="m 5177.42,5367.68 c 0,-78.32 -63.48,-141.79 -141.78,-141.79 h -926.96 c -78.31,0 -141.8,63.47 -141.8,141.79 v 36.55 c 0,78.31 63.49,141.79 141.8,141.79 h 926.96 c 78.3,0 141.78,-63.48 141.78,-141.79 v -36.55" /><path
         id="path58"
         style="fill:#fdfddc;fill-opacity:1;fill-rule:nonzero;stroke:none"
         d="m 6097.85,5125.84 c 0,-55.26 -44.81,-100.05 -100.05,-100.05 h -290.12 c -55.26,0 -100.05,44.79 -100.05,100.05 0,55.25 44.79,100.05 100.05,100.05 h 290.12 c 55.24,0 100.05,-44.8 100.05,-100.05" /><path
         id="path60"
         style="fill:#fdfddc;fill-opacity:1;fill-rule:nonzero;stroke:none"
         d="m 5297.47,4595.6 c 0,-60.78 -49.26,-110.05 -110.05,-110.05 H 4677.2 c -60.77,0 -110.03,49.27 -110.03,110.05 0,60.78 49.26,110.05 110.03,110.05 h 510.22 c 60.79,0 110.05,-49.27 110.05,-110.05" /><path
         id="path62"
         style="fill:#fdfddc;fill-opacity:1;fill-rule:nonzero;stroke:none"
         d="m 6422.92,4160.42 c 0,-60.78 -49.26,-110.04 -110.05,-110.04 h -510.22 c -60.77,0 -110.03,49.26 -110.03,110.04 0,60.78 49.26,110.05 110.03,110.05 h 510.22 c 60.79,0 110.05,-49.27 110.05,-110.05" /><path
         id="path64"
         style="fill:#fdfddc;fill-opacity:1;fill-rule:nonzero;stroke:none"
         d="m 8118.75,5365.95 c 0,-55.26 -44.79,-100.05 -100.04,-100.05 h -320.16 c -55.25,0 -100.03,44.79 -100.03,100.05 0,55.25 44.78,100.04 100.03,100.04 h 320.16 c 55.25,0 100.04,-44.79 100.04,-100.04" /><path
         id="path66"
         style="fill:#fdfddc;fill-opacity:1;fill-rule:nonzero;stroke:none"
         d="m 6758.13,4290.46 c 0,-58.01 -47.04,-105.05 -105.04,-105.05 h -290.14 c -58.02,0 -105.03,47.04 -105.03,105.05 0,58.02 47.01,105.05 105.03,105.05 h 290.14 c 58,0 105.04,-47.03 105.04,-105.05" /><path
         id="path68"
         style="fill:#fdfddc;fill-opacity:1;fill-rule:nonzero;stroke:none"
         d="m 2716.32,4620.61 c 0,-35.91 -29.11,-65.03 -65.03,-65.03 h -300.13 c -35.92,0 -65.03,29.12 -65.03,65.03 0,35.92 29.11,65.03 65.03,65.03 h 300.13 c 35.92,0 65.03,-29.11 65.03,-65.03" /><path
         id="path70"
         style="fill:#fdfddc;fill-opacity:1;fill-rule:nonzero;stroke:none"
         d="m 1055.57,5210.88 c 0,-63.54 -51.51,-115.06 -115.047,-115.06 h -460.21 c -63.536,0 -115.043,51.52 -115.043,115.06 0,63.53 51.507,115.05 115.043,115.05 h 460.21 c 63.537,0 115.047,-51.52 115.047,-115.05" /><path
         id="path72"
         style="fill:#fdfddc;fill-opacity:1;fill-rule:nonzero;stroke:none"
         d="m 1175.63,5120.84 c 0,-46.97 -38.08,-85.04 -85.04,-85.04 H 860.484 c -46.961,0 -85.031,38.07 -85.031,85.04 0,46.96 38.07,85.04 85.031,85.04 h 230.106 c 46.96,0 85.04,-38.08 85.04,-85.04" /><path
         id="path74"
         style="fill:#fdfddc;fill-opacity:1;fill-rule:nonzero;stroke:none"
         d="m 625.383,4370.49 c 0,-35.91 -29.113,-65.02 -65.028,-65.02 H 410.281 c -35.91,0 -65.023,29.11 -65.023,65.02 0,35.93 29.113,65.04 65.023,65.04 h 150.074 c 35.915,0 65.028,-29.11 65.028,-65.04" /><path
         id="path76"
         style="fill:#fdfddc;fill-opacity:1;fill-rule:nonzero;stroke:none"
         d="m 4317.04,3950.31 c 0,-35.92 -29.12,-65.03 -65.04,-65.03 h -110.04 c -35.92,0 -65.03,29.11 -65.03,65.03 0,35.91 29.11,65.03 65.03,65.03 H 4252 c 35.92,0 65.04,-29.12 65.04,-65.03" /><path
         id="path78"
         style="fill:#fdfddc;fill-opacity:1;fill-rule:nonzero;stroke:none"
         d="m 6898.2,5450.98 c 0,-52.48 -42.54,-95.04 -95.04,-95.04 h -170.08 c -52.49,0 -95.03,42.56 -95.03,95.04 0,52.49 42.54,95.04 95.03,95.04 h 170.08 c 52.5,0 95.04,-42.55 95.04,-95.04" /><path
         id="path80"
         style="fill:#24606f;fill-opacity:1;fill-rule:nonzero;stroke:none"
         d="m 982.313,4289.79 c 0,0 -66.817,-55.05 -105.598,-46.29 -38.785,8.67 -74.824,-45.09 9.101,-30.92 83.774,14.01 121.674,26.05 121.674,26.05 l -80.302,-97.39 c 0,0 46.031,1.91 97.942,46.03 51.77,43.97 81.59,66.13 81.59,66.13 l -40.63,-127.07 c 0,0 61.36,2.73 82.55,45.21 21.27,42.74 72.22,107.58 72.22,107.58 l 42.82,-102.46 134.6,15.39 c -4.31,-28.37 -10.74,-40.15 -10.74,-40.15 0,0 -267.82,-199.43 -358.93,-224.32 L 823.918,3866.64 691.301,3735.53 c 0,0 -5.403,-52.45 54.512,-18.6 l 66.746,55.11 c 0,0 -102.317,-119.26 -49.102,-106.54 53.137,12.85 104.094,77.62 104.094,77.62 l 75.847,24.09 -63.601,-127.97 c 0,0 68.457,13.41 104.566,67.22 36.107,53.63 66.277,65.53 66.277,65.53 l 24,-19.97 -49.65,-96.03 c 0,0 44.66,33.17 81.59,66.14 13.48,11.9 61.7,15.79 117.57,15.79 -27.08,-35.49 -76.81,-70.78 -74.27,-128.84 -32.08,8.34 -34.27,-39.27 -86.59,-41.52 0,0 -265.571,-74.07 -309.755,-117.78 0,0 -70.371,28.26 -146.09,4.17 -75.703,-24.2 -20.238,-63.59 25.723,-61.61 l -89.801,-56.09 c 0,0 -169.617,-163.93 -47.73,-137.81 l 88.289,87.34 c 0,0 -27.426,-74.21 39.73,-29.61 l 88.371,87.33 -32.492,-137.12 c 0,0 60.465,23.52 58.617,65.17 l 50.129,85.77 c 0,0 -7.793,-177.89 13.063,-124.75 20.726,53.07 48.761,117.03 48.761,117.03 0,0 11.633,-93.64 49.04,-71.01 37.48,22.44 19.91,73.94 19.91,73.94 l 67.156,44.66 58.199,-101.98 c 0,0 27.42,74.29 57.26,96.51 29.81,22.09 60.44,23.46 60.44,23.46 l 19.15,-23.87 -5.46,-16.69 c -87.62,-26.19 -116.41,-115.45 -116.41,-115.45 l 1.85,-22.22 c -301.955,-82.48 -461.381,-168.04 -508.916,-196.57 -74.82,-45 -184.519,-175.01 -184.519,-175.01 0,0 -87.817,-97.8 -34.27,-95.56 53.754,2.42 74.004,65.93 74.004,65.93 l 82.141,55.69 -55.125,-148.48 c 0,0 96.093,87.54 101.972,129.59 5.879,42.15 73.934,65.95 73.934,65.95 l -8.551,-156.98 c 0,0 14.91,11.01 51.36,54.37 36.593,43.45 33.449,116.35 56.359,117.3 23.051,1.04 83.512,24.49 83.512,24.49 l -18.743,-77.62 c -4.988,-0.68 -10.332,-2.27 -16,-7.45 -51.781,-46.66 -83.988,-55.9 -83.988,-55.9 0,0 -26.949,-42.86 -49.039,-64.69 38.098,37.61 -125.019,-39.26 -133.433,-110.18 -4.454,-36.85 -23.536,9.44 -98.485,-35.63 0,0 -112.715,-98.83 -21.207,-84.38 l -80.289,-97.48 c 0,0 -167.289,-216.04 -106.012,-213.4 61.34,2.75 102.801,108.83 102.801,108.83 0,0 -27.016,-84.67 34.805,-92.4 61.683,-7.78 117.64,119.85 117.64,119.85 l 86.793,107.37 0.196,-0.76 c -5.266,-16.9 -57.379,-188.3 0.418,-175.92 60.929,13.14 24,157.7 92.05,181.64 68.118,23.76 142.606,79.13 142.606,79.13 0,0 -46.582,-169.05 -9.992,-125.68 36.523,43.34 114.148,203.31 152.453,204.96 38.23,1.63 -36.113,-231.29 109.565,-47.46 71.67,90.35 95.41,125.64 101.16,138.08 l 108.87,-24.62 c 5.34,-12.93 10.81,-25.85 16.42,-38.64 l -78.18,-44.67 c 0,0 -19.08,5.69 -25.23,-40.36 -6.02,-45.81 -42.34,-49.29 -42.34,-49.29 0,0 -9.51,-37.21 -28.25,-63.62 28.05,39.59 -88.421,-53.46 -119.609,-78.7 -28.043,-8.76 -55.543,-19.29 -81.527,-31.83 0,0 -40.832,-46.99 -44.391,-77.07 -15.93,-11.74 -31.324,-22.62 -44.586,-31.79 -48.695,-7.6 -111.621,-23.88 -163.879,-60.05 L 473.473,2032.35 351.25,1936.12 c 0,0 -124.199,-210.73 50.41,-69.42 l 88.082,117.28 68.465,-9.7 -107.648,-117.35 c 0,0 -136.379,-176.45 64.699,-18.15 61.148,48.08 111.406,125.65 111.406,125.65 l 76.125,36.58 c -41.652,-81.71 -93.629,-193.89 -69.012,-200.72 39.121,-10.96 88.844,133.9 88.844,133.9 0,0 -35.836,-117.02 1.164,-143.26 37.008,-26.34 56.774,141.98 56.774,141.98 l 18.937,15.33 c 12.379,-16.42 25.516,-32.23 37.891,-43.37 -0.207,-44.81 4.578,-92.09 26.402,-89.68 41.106,4.39 60.863,186.04 109.02,204.35 1.367,0.56 2.738,1.46 4.316,2.06 8.477,-48.14 21.395,-98.62 40.895,-125.08 -29.618,-101.82 -77.844,-279.6 -56.981,-290.21 29.203,-14.84 62.851,168.42 62.851,168.42 0,0 -23.929,-148.08 4.18,-182.43 28.04,-34.4 71.33,184.18 71.33,184.18 l 55.4,172.15 c 0,0 -39.33,-208.18 -8.96,-203.61 30.37,4.58 33.17,129.61 68.33,151.83 35.22,22.17 22.97,0.97 22.97,0.97 0,0 -5.06,-168.66 17.86,-100.26 12.79,38.21 25.37,105.53 37.13,156.01 l 26.26,-74.45 13.35,4.68 c 6.28,-59.3 20.17,-83.94 64.08,75.71 34.81,126.74 44.59,166.4 44.59,166.4 l 19.19,5.6 -143.91,-1337.619 c 80.63,-34.559 155.16,-50.059 220.1,-54.993 V 4985.77 L 982.313,4289.79" /><path
         id="path82"
         style="fill:#20455c;fill-opacity:1;fill-rule:nonzero;stroke:none"
         d="m 2725.31,2340.5 -24.97,34.83 c 113.67,-7.93 -78.17,117.31 -78.17,117.31 -78.51,38.41 -61.9,43.81 -88.09,58.65 -68.46,39.21 -184.94,111.84 -143.83,77.57 -23.8,19.77 -120.37,30.09 -120.37,30.09 0,0 -56.84,-16.8 -58.14,14.45 -1.36,31.31 -26.12,72.02 -26.12,72.02 l -53.48,18.66 c 4.85,26.33 1.09,63.05 -9.31,97.1 30.1,-6.77 55.54,-18.1 70.86,-37.2 73.11,-90.82 92.67,-11.69 20.24,63.63 l 153.61,-87.35 -2.73,62.42 142.74,-103.39 152.17,-56.09 c 0,0 -25.1,45.82 -119.69,104.5 -94.72,58.49 -248.33,145.97 -248.33,145.97 0,0 -243.41,36.45 -280.62,97.39 -12.79,21.07 -32.08,45.34 -51.91,68.32 117.16,-39.04 238.35,-72.16 238.35,-72.16 l -157.37,87.21 -201.21,109.22 -101.5,98.42 c -18.53,51.7 -18.94,96.3 -11.91,132.82 2.81,-8.96 5.62,-17.72 8.42,-26.06 -3.69,-56.83 25.92,-94.04 25.92,-94.04 l 46.04,121.4 0.75,-1.44 -11.15,-55.74 c 0,0 32.07,-29.88 49.58,-81.39 7.11,-20.65 11.28,-4.25 13.82,22.51 1.84,-1.03 3.76,-1.71 5.74,-1.78 15.46,-1.03 8.62,50.2 -1.92,101.42 0,2.19 0,3.9 0,3.9 l 21.75,-13.54 23.81,-56.49 c 0,0 61.9,-214.01 86.92,-177.42 0.62,0.89 0.96,2.12 1.51,3.09 18.12,-31.74 20.51,25.78 19.35,80.01 14.92,-38.16 31.94,-71.2 44.66,-63.33 10.88,6.77 -3.49,62.31 -24.89,127.35 l 47.32,-25.86 c 0,0 50.96,-112.71 82.55,-132.2 31.61,-19.49 -20.71,124.48 -20.71,124.48 l 110.45,-68.47 c 0,0 66.27,-111.95 96.98,-110.65 30.64,1.36 -42.88,102.65 -42.88,102.65 l 95.61,-79.4 c 72.63,-80.42 162.29,-24.35 99.72,4.24 -62.79,28.65 -269.68,197.32 -269.68,197.32 0,0 -114.07,151.63 -193.89,221.24 -25.72,22.51 -67.98,37.56 -113.26,47.95 l -40,93.96 c 4.16,0.55 7.52,3.36 10.46,6.99 l 101.36,-78.86 44.66,33.24 41.92,-81.8 63.06,-38.98 -3.56,83.36 c 0,0 31.59,-19.48 56.42,-60.25 24.69,-40.56 86.52,-48.36 86.52,-48.36 l -82.89,142.54 56.36,-60.26 c 72.08,-69.96 116.75,-36.65 116.75,-36.65 l -50.89,112.64 c 0,0 -149.78,87.47 -250.73,114.49 -69.62,18.61 -252.17,200.93 -358.79,312.49 0.14,18.8 -0.96,83.03 -19.15,128.65 46.78,-20.38 116.95,-58.55 117.71,-106.08 1.29,-71.41 181.3,-20.04 181.3,-20.04 l -73.73,106.56 c 0,0 93.36,-27.44 128.58,-41.52 35.15,-14.09 81.13,-12.11 81.13,-12.11 l -598.75,791.12 V 738.898 c 151.27,-11.437 250.11,34.981 250.11,34.981 0,0 -146.61,1368.421 -125.26,1369.241 24.76,1.12 89.38,-231.08 116.81,-292.5 27.43,-61.49 -17.99,187.19 -17.99,187.19 0,0 52.87,-76.12 98.76,-105.31 45.96,-29.41 35.57,-249.12 75.92,-262.96 40.28,-14.03 -16.42,265.47 -16.42,265.47 l 66.14,-153.81 c 0,0 47.74,-185.83 86.65,-168.53 38.99,17.4 13.75,141.58 13.75,141.58 0,0 36.46,-155.11 76.06,-153.46 39.67,1.79 -87.75,309.45 -87.75,309.45 l -60.61,138.45 c 60.12,-13.06 46.11,139.04 -6.08,199.51 -9.02,10.38 -18.95,14.62 -29.13,15.27 -4.31,12.44 -7.46,20.96 -7.46,20.96 0,0 79,-48.82 148.83,-66.75 69.89,-17.84 45.55,-165.01 107.3,-172.74 61.76,-7.89 -15.32,176.79 -15.32,176.79 l 96.51,-100.21 c 0,0 66.68,-122.48 127.55,-109.35 60.94,13.05 26.67,95.05 26.67,95.05 0,0 50.48,-102.18 111.83,-99.56 61.34,2.59 -124,203.39 -124,203.39 l -88.37,90.3 c 34.54,-2.49 53.97,10.09 60.6,28.99 38.02,-43.5 29,-149.51 81.19,-156.08 61.82,-7.79 -15.26,176.86 -15.26,176.86 l 96.43,-100.24 c 0,0 66.76,-122.38 127.62,-109.4 60.87,13.02 26.62,95.16 26.62,95.16 0,0 50.47,-102.19 111.75,-99.57 61.41,2.6 -123.93,203.43 -123.93,203.43" /><path
         id="path84"
         style="fill:#1c4168;fill-opacity:1;fill-rule:nonzero;stroke:none"
         d="m 6477.72,3069.38 c 0,0 -21.68,-17.85 -34.23,-15.02 -12.57,2.82 -24.28,-14.61 2.94,-10.01 27.17,4.54 39.45,8.44 39.45,8.44 l -26.02,-31.57 c 0,0 14.92,0.61 31.75,14.93 16.77,14.24 26.43,21.44 26.43,21.44 l -13.17,-41.2 c 0,0 19.91,0.89 26.77,14.66 6.9,13.85 23.42,34.87 23.42,34.87 l 13.87,-33.22 43.65,5 c -1.4,-9.2 -3.5,-13.02 -3.5,-13.02 0,0 -86.81,-64.66 -116.36,-72.73 l -66.35,-19.75 -43,-42.5 c 0,0 -1.76,-17.02 17.67,-6.04 l 21.64,17.87 c 0,0 -33.18,-38.67 -15.91,-34.54 17.22,4.16 33.75,25.16 33.75,25.16 l 24.58,7.82 -20.63,-41.49 c 0,0 22.21,4.34 33.91,21.8 11.7,17.37 21.49,21.22 21.49,21.22 l 7.79,-6.45 -16.12,-31.13 c 0,0 14.49,10.74 26.48,21.43 4.34,3.85 19.98,5.12 38.11,5.12 -8.8,-11.51 -24.91,-22.95 -24.1,-41.77 -10.39,2.7 -11.1,-12.73 -28.07,-13.46 0,0 -86.09,-24.01 -100.41,-38.19 0,0 -22.82,9.16 -47.36,1.36 -24.53,-7.85 -6.57,-20.63 8.35,-19.98 l -29.13,-18.18 c 0,0 -54.99,-53.13 -15.48,-44.68 l 28.62,28.33 c 0,0 -8.88,-24.07 12.9,-9.6 l 28.63,28.32 -10.53,-44.46 c 0,0 19.62,7.6 19,21.12 l 16.25,27.81 c 0,0 -2.51,-57.69 4.25,-40.46 6.71,17.21 15.82,37.95 15.82,37.95 0,0 3.77,-30.37 15.88,-23.02 12.16,7.28 6.46,23.97 6.46,23.97 l 21.76,14.48 18.88,-33.07 c 0,0 8.88,24.08 18.57,31.3 9.65,7.17 19.59,7.6 19.59,7.6 l 6.22,-7.75 -1.8,-5.4 c -28.39,-8.5 -37.72,-37.43 -37.72,-37.43 l 0.6,-7.2 c -97.9,-26.75 -149.57,-54.48 -165,-63.73 -24.25,-14.58 -59.8,-56.73 -59.8,-56.73 0,0 -28.48,-31.71 -11.13,-30.97 17.42,0.78 24,21.37 24,21.37 l 26.62,18.06 -17.86,-48.17 c 0,0 31.15,28.4 33.06,42.03 1.92,13.66 23.96,21.37 23.96,21.37 l -2.76,-50.87 c 0,0 4.82,3.54 16.64,17.6 11.87,14.11 10.84,37.74 18.28,38.04 7.46,0.34 27.07,7.93 27.07,7.93 l -6.08,-25.14 c -1.63,-0.24 -3.36,-0.75 -5.19,-2.43 -16.79,-15.11 -27.23,-18.12 -27.23,-18.12 0,0 -8.74,-13.89 -15.89,-20.97 12.35,12.2 -40.54,-12.73 -43.26,-35.72 -1.45,-11.95 -7.63,3.07 -31.93,-11.56 0,0 -36.53,-32.03 -6.89,-27.36 l -26.01,-31.58 c 0,0 -54.23,-70.05 -34.37,-69.21 19.88,0.89 33.31,35.28 33.31,35.28 0,0 -8.75,-27.44 11.29,-29.93 20.01,-2.52 38.14,38.84 38.14,38.84 l 28.14,34.81 0.06,-0.26 c -1.69,-5.46 -18.59,-61.04 0.15,-57.02 19.75,4.27 7.79,51.13 29.85,58.88 22.08,7.7 46.23,25.67 46.23,25.67 0,0 -15.1,-54.8 -3.23,-40.75 11.82,14.05 36.97,65.93 49.4,66.47 12.4,0.52 -11.71,-75.02 35.54,-15.41 23.23,29.28 30.92,40.74 32.77,44.78 l 35.31,-8 c 1.73,-4.18 3.5,-8.38 5.32,-12.5 l -25.35,-14.5 c 0,0 -6.2,1.83 -8.17,-13.09 -1.96,-14.85 -13.74,-15.98 -13.74,-15.98 0,0 -3.08,-12.07 -9.15,-20.61 9.08,12.82 -28.65,-17.34 -38.79,-25.52 -9.07,-2.85 -18.01,-6.26 -26.43,-10.32 0,0 -13.23,-15.25 -14.39,-24.99 -5.17,-3.82 -10.13,-7.33 -14.43,-10.3 -15.8,-2.45 -36.2,-7.74 -53.14,-19.47 l -45.49,-50.45 -39.61,-31.19 c 0,0 -40.28,-68.32 16.33,-22.52 l 28.58,38.02 22.18,-3.14 -34.89,-38.04 c 0,0 -44.22,-57.18 20.97,-5.87 19.82,15.58 36.11,40.72 36.11,40.72 l 24.69,11.88 c -13.5,-26.51 -30.35,-62.9 -22.37,-65.11 12.68,-3.53 28.8,43.44 28.8,43.44 0,0 -11.63,-37.93 0.39,-46.46 11.99,-8.53 18.39,46.02 18.39,46.02 l 6.14,4.99 c 4,-5.34 8.26,-10.45 12.28,-14.05 -0.07,-14.54 1.49,-29.87 8.57,-29.09 13.33,1.4 19.73,60.32 35.33,66.26 l 1.41,0.65 c 2.75,-15.61 6.94,-31.97 13.24,-40.54 -9.58,-33.02 -25.22,-90.65 -18.46,-94.09 9.47,-4.8 20.37,54.59 20.37,54.59 0,0 -7.74,-48 1.37,-59.14 9.08,-11.15 23.11,59.75 23.11,59.75 l 17.96,55.78 c 0,0 -12.75,-67.49 -2.9,-66.03 9.85,1.51 10.75,42.04 22.15,49.24 11.43,7.19 7.45,0.32 7.45,0.32 0,0 -1.64,-54.68 5.79,-32.5 4.14,12.39 8.23,34.2 12.03,50.56 l 8.51,-24.13 4.36,1.5 c 2.01,-19.21 6.52,-27.18 20.76,24.57 11.27,41.08 14.46,53.93 14.46,53.93 l 6.22,1.82 -46.66,-433.65 c 26.14,-11.19 50.28,-16.22 71.34,-17.82 v 1376.81 l -179.42,-225.63" /><path
         id="path86"
         style="fill:#17314b;fill-opacity:1;fill-rule:nonzero;stroke:none"
         d="m 7042.78,2437.42 -8.09,11.29 c 36.85,-2.55 -25.34,38.04 -25.34,38.04 -25.44,12.46 -20.07,14.21 -28.56,19.03 -22.21,12.7 -59.97,36.24 -46.64,25.16 -7.7,6.38 -39.01,9.74 -39.01,9.74 0,0 -18.42,-5.46 -18.86,4.65 -0.43,10.19 -8.47,23.37 -8.47,23.37 l -17.32,6.05 c 1.56,8.55 0.35,20.44 -3.03,31.48 9.77,-2.18 18.01,-5.87 22.97,-12.05 23.71,-29.45 30.06,-3.79 6.57,20.62 l 49.8,-28.33 -0.89,20.26 46.3,-33.52 49.31,-18.19 c 0,0 -8.13,14.85 -38.79,33.87 -30.72,18.97 -80.53,47.34 -80.53,47.34 0,0 -78.88,11.81 -90.96,31.56 -4.16,6.84 -10.42,14.71 -16.85,22.17 37.99,-12.68 77.3,-23.41 77.3,-23.41 l -51.04,28.27 -65.22,35.39 -32.9,31.94 c -6.02,16.75 -6.16,31.21 -3.87,43.05 0.91,-2.9 1.83,-5.75 2.74,-8.44 -1.21,-18.44 8.39,-30.49 8.39,-30.49 l 14.93,39.34 0.22,-0.46 -3.6,-18.07 c 0,0 10.41,-9.69 16.09,-26.4 2.29,-6.69 3.64,-1.37 4.47,7.32 l 1.86,-0.6 c 5.02,-0.31 2.8,16.28 -0.61,32.88 v 1.28 l 7.04,-4.39 7.72,-18.31 c 0,0 20.07,-69.39 28.18,-57.5 l 0.47,0.96 c 5.9,-10.28 6.68,8.37 6.29,25.96 4.85,-12.38 10.36,-23.1 14.48,-20.54 3.53,2.19 -1.13,20.21 -8.05,41.29 l 15.33,-8.39 c 0,0 16.51,-36.52 26.76,-42.85 10.25,-6.33 -6.72,40.34 -6.72,40.34 l 35.81,-22.18 c 0,0 21.48,-36.31 31.43,-35.87 9.94,0.43 -13.88,33.29 -13.88,33.29 l 30.98,-25.77 c 23.55,-26.07 52.62,-7.87 32.33,1.39 -20.35,9.27 -87.41,63.98 -87.41,63.98 0,0 -36.99,49.15 -62.87,71.72 -8.33,7.28 -22.04,12.15 -36.72,15.54 l -12.96,30.46 c 1.34,0.18 2.43,1.09 3.38,2.26 l 32.86,-25.57 14.48,10.78 13.59,-26.5 20.44,-12.65 -1.15,27.02 c 0,0 10.25,-6.3 18.29,-19.54 8,-13.15 28.04,-15.66 28.04,-15.66 l -26.89,46.21 18.31,-19.55 c 23.35,-22.68 37.84,-11.87 37.84,-11.87 l -16.49,36.52 c 0,0 -48.55,28.36 -81.31,37.11 -22.55,6.03 -81.74,65.14 -116.29,101.31 0.03,6.09 -0.32,26.91 -6.21,41.7 15.17,-6.6 37.91,-18.98 38.16,-34.38 0.41,-23.15 58.78,-6.5 58.78,-6.5 l -23.91,34.54 c 0,0 30.27,-8.89 41.68,-13.46 11.4,-4.57 26.29,-3.93 26.29,-3.93 l -194.11,256.48 V 1918.2 c 49.05,-3.71 81.09,11.35 81.09,11.35 0,0 -47.53,443.64 -40.6,443.89 8,0.35 28.98,-74.92 37.86,-94.82 8.9,-19.94 -5.83,60.68 -5.83,60.68 0,0 17.14,-24.68 32.02,-34.13 14.91,-9.55 11.53,-80.77 24.61,-85.26 13.05,-4.55 -5.33,86.08 -5.33,86.08 l 21.44,-49.88 c 0,0 15.48,-60.24 28.11,-54.62 12.62,5.63 4.44,45.88 4.44,45.88 0,0 11.83,-50.28 24.67,-49.75 12.85,0.6 -28.46,100.33 -28.46,100.33 l -19.63,44.87 c 19.49,-4.23 14.93,45.1 -1.98,64.69 -2.92,3.38 -6.13,4.75 -9.45,4.92 -1.38,4.06 -2.41,6.85 -2.41,6.85 0,0 25.63,-15.85 48.25,-21.65 22.65,-5.78 14.76,-53.51 34.77,-56 20.05,-2.58 -4.97,57.29 -4.97,57.29 l 31.3,-32.47 c 0,0 21.61,-39.72 41.35,-35.45 19.77,4.24 8.65,30.82 8.65,30.82 0,0 16.38,-33.15 36.26,-32.29 19.88,0.85 -40.21,65.93 -40.21,65.93 l -28.64,29.28 c 11.18,-0.82 17.49,3.27 19.65,9.39 12.33,-14.07 9.4,-48.46 26.31,-50.58 20.05,-2.54 -4.94,57.34 -4.94,57.34 l 31.25,-32.51 c 0,0 21.65,-39.68 41.39,-35.46 19.73,4.23 8.63,30.84 8.63,30.84 0,0 16.36,-33.11 36.22,-32.29 19.92,0.85 -40.18,65.95 -40.18,65.95" /><path
         id="path88"
         style="fill:#1c4168;fill-opacity:1;fill-rule:nonzero;stroke:none"
         d="m 5464.27,2736.06 c 0,0 -13.03,-10.71 -20.57,-9.02 -7.54,1.69 -14.56,-8.78 1.78,-6.02 16.32,2.75 23.69,5.07 23.69,5.07 l -15.63,-18.95 c 0,0 8.95,0.37 19.07,8.94 10.08,8.57 15.86,12.9 15.86,12.9 l -7.89,-24.74 c 0,0 11.95,0.53 16.07,8.8 4.14,8.32 14.07,20.94 14.07,20.94 l 8.32,-19.96 26.21,3.01 c -0.85,-5.52 -2.09,-7.83 -2.09,-7.83 0,0 -52.15,-38.81 -69.87,-43.65 l -39.86,-11.87 -25.82,-25.53 c 0,0 -1.05,-10.21 10.61,-3.62 l 13,10.73 c 0,0 -19.92,-23.22 -9.56,-20.75 10.34,2.5 20.27,15.11 20.27,15.11 l 14.77,4.71 -12.4,-24.93 c 0,0 13.35,2.62 20.36,13.11 7.04,10.4 12.91,12.73 12.91,12.73 l 4.68,-3.87 -9.66,-18.7 c 0,0 8.67,6.46 15.88,12.87 2.61,2.33 12.01,3.06 22.89,3.06 -5.28,-6.87 -14.95,-13.78 -14.47,-25.07 -6.24,1.64 -6.67,-7.66 -16.84,-8.07 0,0 -51.71,-14.43 -60.32,-22.95 0,0 -13.7,5.5 -28.44,0.8 -14.73,-4.7 -3.96,-12.35 5.01,-11.96 l -17.49,-10.92 c 0,0 -33.03,-31.93 -9.29,-26.85 l 17.18,17.01 c 0,0 -5.33,-14.44 7.74,-5.76 l 17.21,17 -6.33,-26.68 c 0,0 11.79,4.55 11.42,12.66 l 9.76,16.69 c 0,0 -1.52,-34.63 2.53,-24.27 4.05,10.33 9.51,22.79 9.51,22.79 0,0 2.26,-18.24 9.53,-13.82 7.31,4.36 3.87,14.39 3.87,14.39 l 13.09,8.68 11.33,-19.84 c 0,0 5.33,14.46 11.14,18.79 5.81,4.29 11.77,4.55 11.77,4.55 l 3.75,-4.64 -1.08,-3.25 c -17.06,-5.09 -22.65,-22.47 -22.65,-22.47 l 0.34,-4.33 c -58.77,-16.07 -89.8,-32.72 -99.07,-38.26 -14.56,-8.78 -35.93,-34.07 -35.93,-34.07 0,0 -17.1,-19.04 -6.67,-18.62 10.46,0.46 14.41,12.85 14.41,12.85 l 15.99,10.86 -10.73,-28.93 c 0,0 18.71,17.04 19.86,25.24 1.13,8.18 14.38,12.83 14.38,12.83 l -1.65,-30.57 c 0,0 2.89,2.16 9.99,10.59 7.13,8.46 6.51,22.66 10.96,22.83 4.49,0.2 16.26,4.77 16.26,4.77 l -3.63,-15.11 c -0.99,-0.15 -2.01,-0.44 -3.13,-1.43 -10.09,-9.1 -16.33,-10.9 -16.33,-10.9 0,0 -5.26,-8.34 -9.55,-12.58 7.4,7.31 -24.37,-7.65 -25.99,-21.47 -0.87,-7.15 -4.58,1.86 -19.18,-6.94 0,0 -21.94,-19.22 -4.12,-16.42 l -15.64,-18.95 c 0,0 -32.56,-42.07 -20.64,-41.56 11.94,0.53 20,21.18 20,21.18 0,0 -5.26,-16.48 6.8,-17.98 11.99,-1.53 22.89,23.34 22.89,23.34 l 16.91,20.89 0.04,-0.15 c -1.03,-3.27 -11.18,-36.67 0.07,-34.26 11.86,2.58 4.7,30.71 17.94,35.37 13.27,4.62 27.75,15.39 27.75,15.39 0,0 -9.06,-32.88 -1.94,-24.47 7.11,8.47 22.23,39.62 29.67,39.92 7.44,0.31 -7.03,-45.03 21.34,-9.25 13.95,17.6 18.57,24.48 19.7,26.91 l 21.19,-4.8 c 1.04,-2.54 2.11,-5.05 3.2,-7.52 l -15.23,-8.72 c 0,0 -3.72,1.1 -4.92,-7.85 -1.15,-8.91 -8.24,-9.6 -8.24,-9.6 0,0 -1.83,-7.24 -5.5,-12.37 5.48,7.69 -17.2,-10.43 -23.28,-15.33 -5.46,-1.69 -10.81,-3.75 -15.88,-6.19 0,0 -7.94,-9.17 -8.63,-15.01 -3.1,-2.29 -6.09,-4.39 -8.68,-6.21 -9.48,-1.46 -21.73,-4.62 -31.91,-11.66 l -27.3,-30.3 -23.79,-18.73 c 0,0 -24.19,-41.03 9.8,-13.51 l 17.14,22.83 13.33,-1.9 -20.95,-22.85 c 0,0 -26.55,-34.34 12.61,-3.54 11.88,9.37 21.67,24.5 21.67,24.5 l 14.83,7.1 c -8.11,-15.9 -18.23,-37.74 -13.42,-39.08 7.59,-2.12 17.3,26.08 17.3,26.08 0,0 -7.01,-22.78 0.21,-27.89 7.2,-5.13 11.06,27.63 11.06,27.63 l 3.68,2.98 c 2.41,-3.19 4.97,-6.28 7.38,-8.44 -0.04,-8.72 0.88,-17.93 5.13,-17.47 8.01,0.89 11.87,36.24 21.22,39.8 l 0.84,0.39 c 1.65,-9.37 4.16,-19.18 7.96,-24.35 -5.75,-19.82 -15.15,-54.43 -11.08,-56.49 5.7,-2.91 12.23,32.78 12.23,32.78 0,0 -4.65,-28.82 0.8,-35.52 5.48,-6.67 13.91,35.87 13.91,35.87 l 10.77,33.51 c 0,0 -7.63,-40.54 -1.73,-39.64 5.89,0.89 6.45,25.25 13.29,29.57 6.86,4.3 4.48,0.16 4.48,0.16 0,0 -1,-32.81 3.49,-19.5 2.47,7.43 4.91,20.56 7.22,30.38 l 5.11,-14.5 2.59,0.91 c 1.22,-11.56 3.94,-16.34 12.49,14.74 6.77,24.67 8.67,32.41 8.67,32.41 l 3.73,1.08 -28.02,-260.41 c 15.69,-6.74 30.21,-9.75 42.87,-10.72 v 826.8 l -107.76,-135.49" /><path
         id="path90"
         style="fill:#17314b;fill-opacity:1;fill-rule:nonzero;stroke:none"
         d="m 5803.59,2356.56 -4.86,6.8 c 22.15,-1.54 -15.2,22.83 -15.2,22.83 -15.29,7.45 -12.06,8.53 -17.16,11.41 -13.31,7.62 -36.02,21.75 -28,15.1 -4.64,3.85 -23.43,5.85 -23.43,5.85 0,0 -11.05,-3.28 -11.33,2.83 -0.26,6.07 -5.08,14 -5.08,14 l -10.4,3.63 c 0.94,5.13 0.2,12.3 -1.82,18.93 5.85,-1.32 10.82,-3.52 13.8,-7.25 14.24,-17.67 18.05,-2.28 3.93,12.39 l 29.92,-17.01 -0.53,12.16 27.79,-20.13 29.6,-10.93 c 0,0 -4.88,8.91 -23.28,20.35 -18.46,11.37 -48.35,28.43 -48.35,28.43 0,0 -47.38,7.07 -54.64,18.93 -2.49,4.12 -6.24,8.84 -10.12,13.31 22.82,-7.59 46.42,-14.03 46.42,-14.03 l -30.65,16.97 -39.16,21.24 -19.76,19.19 c -3.6,10.05 -3.69,18.72 -2.31,25.85 0.53,-1.75 1.09,-3.44 1.63,-5.07 -0.73,-11.06 5.04,-18.31 5.04,-18.31 l 8.97,23.63 0.14,-0.27 -2.16,-10.86 c 0,0 6.24,-5.83 9.66,-15.84 1.36,-4.04 2.2,-0.85 2.68,4.37 l 1.11,-0.35 c 3.01,-0.21 1.69,9.78 -0.35,19.75 v 0.74 l 4.2,-2.61 4.66,-11 c 0,0 12.03,-41.66 16.91,-34.55 l 0.29,0.6 c 3.52,-6.19 4,5.03 3.77,15.57 2.91,-7.41 6.23,-13.85 8.7,-12.31 2.12,1.32 -0.68,12.15 -4.84,24.8 l 9.2,-5.05 c 0,0 9.94,-21.94 16.07,-25.73 6.16,-3.79 -4.02,24.23 -4.02,24.23 l 21.49,-13.31 c 0,0 12.9,-21.8 18.9,-21.55 5.95,0.27 -8.34,19.99 -8.34,19.99 l 18.59,-15.48 c 14.14,-15.66 31.58,-4.74 19.41,0.85 -12.21,5.55 -52.5,38.42 -52.5,38.42 0,0 -22.2,29.48 -37.73,43.05 -5.03,4.37 -13.25,7.32 -22.07,9.34 l -7.78,18.29 2.04,1.36 19.73,-15.35 8.69,6.47 8.16,-15.9 12.28,-7.63 -0.7,16.26 c 0,0 6.16,-3.79 11,-11.74 4.8,-7.89 16.83,-9.42 16.83,-9.42 l -16.13,27.76 10.96,-11.73 c 14.05,-13.64 22.75,-7.15 22.75,-7.15 l -9.91,21.94 c 0,0 -29.17,17.02 -48.83,22.27 -13.55,3.63 -49.09,39.13 -69.84,60.84 0.03,3.67 -0.19,16.17 -3.72,25.05 9.1,-3.98 22.76,-11.39 22.93,-20.64 0.22,-13.9 35.28,-3.91 35.28,-3.91 l -14.36,20.74 c 0,0 18.18,-5.35 25.03,-8.08 6.84,-2.73 15.8,-2.36 15.8,-2.36 l -116.56,154.02 v -826.8 c 29.44,-2.22 48.68,6.8 48.68,6.8 0,0 -28.53,266.43 -24.39,266.59 4.82,0.21 17.41,-45 22.74,-56.94 5.34,-11.97 -3.47,36.45 -3.47,36.45 0,0 10.27,-14.82 19.2,-20.53 8.96,-5.7 6.92,-48.48 14.79,-51.17 7.82,-2.74 -3.19,51.67 -3.19,51.67 l 12.87,-29.94 c 0,0 9.29,-36.18 16.87,-32.8 7.58,3.36 2.66,27.55 2.66,27.55 0,0 7.11,-30.2 14.81,-29.87 7.73,0.33 -17.08,60.23 -17.08,60.23 l -11.8,26.97 c 11.7,-2.55 8.98,27.07 -1.18,38.81 -1.74,2.04 -3.69,2.87 -5.68,2.97 -0.83,2.43 -1.44,4.1 -1.44,4.1 0,0 15.39,-9.5 28.96,-12.99 13.62,-3.47 8.88,-32.12 20.91,-33.63 12.01,-1.54 -3.01,34.41 -3.01,34.41 l 18.79,-19.51 c 0,0 13.01,-23.84 24.84,-21.28 11.88,2.55 5.2,18.49 5.2,18.49 0,0 9.82,-19.87 21.78,-19.36 11.95,0.49 -24.14,39.58 -24.14,39.58 l -17.21,17.59 c 6.72,-0.49 10.51,1.96 11.81,5.65 7.39,-8.5 5.64,-29.09 15.8,-30.39 12.03,-1.53 -2.97,34.42 -2.97,34.42 l 18.77,-19.53 c 0,0 13,-23.8 24.84,-21.28 11.85,2.53 5.18,18.55 5.18,18.55 0,0 9.82,-19.91 21.76,-19.4 11.96,0.52 -24.14,39.6 -24.14,39.6" /><path
         id="path92"
         style="fill:#215376;fill-opacity:1;fill-rule:nonzero;stroke:none"
         d="m 7434.42,3449.64 c 0,0 -31.28,-25.78 -49.4,-21.67 -18.15,4.05 -35.02,-21.08 4.27,-14.46 39.2,6.55 56.92,12.18 56.92,12.18 l -37.58,-45.56 c 0,0 21.53,0.9 45.81,21.54 24.23,20.55 38.18,30.93 38.18,30.93 l -19.02,-59.43 c 0,0 28.72,1.26 38.64,21.15 9.95,19.98 33.79,50.32 33.79,50.32 l 20.01,-47.94 62.98,7.2 c -1.99,-13.29 -5.02,-18.78 -5.02,-18.78 0,0 -125.3,-93.3 -167.93,-104.95 l -95.75,-28.51 -62.06,-61.33 c 0,0 -2.51,-24.54 25.51,-8.7 l 31.23,25.79 c 0,0 -47.85,-55.8 -22.97,-49.85 24.86,6 48.7,36.32 48.7,36.32 l 35.48,11.26 -29.75,-59.88 c 0,0 32.04,6.29 48.93,31.47 16.9,25.08 30.99,30.64 30.99,30.64 l 11.25,-9.34 -23.25,-44.92 c 0,0 20.87,15.51 38.18,30.94 6.31,5.57 28.87,7.38 55.01,7.38 -12.68,-16.59 -35.93,-33.12 -34.76,-60.27 -15,3.89 -16.02,-18.37 -40.51,-19.43 0,0 -124.24,-34.66 -144.91,-55.09 0,0 -32.92,13.2 -68.35,1.94 -35.4,-11.32 -9.48,-29.74 12.05,-28.83 l -42.03,-26.22 c 0,0 -79.33,-76.7 -22.33,-64.47 l 41.31,40.85 c 0,0 -12.83,-34.72 18.6,-13.85 l 41.33,40.86 -15.21,-64.15 c 0,0 28.31,10.99 27.43,30.48 l 23.46,40.13 c 0,0 -3.67,-83.22 6.12,-58.35 9.7,24.8 22.81,54.73 22.81,54.73 0,0 5.44,-43.8 22.93,-33.2 17.55,10.48 9.33,34.58 9.33,34.58 l 31.42,20.89 27.24,-47.71 c 0,0 12.81,34.75 26.75,45.15 13.97,10.34 28.29,10.98 28.29,10.98 l 8.96,-11.18 -2.58,-7.8 c -40.97,-12.25 -54.42,-54.01 -54.42,-54.01 l 0.84,-10.39 c -141.26,-38.59 -215.82,-78.62 -238.1,-91.97 -35,-21.05 -86.32,-81.87 -86.32,-81.87 0,0 -41.07,-45.75 -16,-44.71 25.12,1.14 34.63,30.84 34.63,30.84 l 38.41,26.07 -25.78,-69.46 c 0,0 44.94,40.94 47.69,60.6 2.74,19.73 34.59,30.87 34.59,30.87 l -4,-73.46 c 0,0 6.97,5.16 24.03,25.45 17.12,20.33 15.65,54.44 26.35,54.87 10.8,0.49 39.08,11.47 39.08,11.47 l -8.78,-36.33 c -2.33,-0.32 -4.82,-1.04 -7.45,-3.47 -24.25,-21.82 -39.32,-26.15 -39.32,-26.15 0,0 -12.63,-20.07 -22.95,-30.26 17.84,17.59 -58.48,-18.38 -62.4,-51.54 -2.1,-17.25 -11.02,4.42 -46.08,-16.69 0,0 -52.72,-46.23 -9.94,-39.48 l -37.55,-45.59 c 0,0 -78.27,-101.08 -49.6,-99.84 28.71,1.3 48.09,50.91 48.09,50.91 0,0 -12.65,-39.62 16.3,-43.24 28.85,-3.62 55.03,56.07 55.03,56.07 l 40.61,50.26 0.1,-0.37 c -2.48,-7.89 -26.84,-88.1 0.16,-82.29 28.53,6.12 11.25,73.77 43.08,84.96 31.87,11.11 66.73,37.02 66.73,37.02 0,0 -21.77,-79.09 -4.67,-58.79 17.08,20.27 53.39,95.11 71.29,95.89 17.9,0.77 -16.87,-108.22 51.28,-22.2 33.52,42.27 44.62,58.78 47.31,64.61 l 50.97,-11.53 c 2.47,-6.05 5.02,-12.09 7.66,-18.06 l -36.57,-20.91 c 0,0 -8.95,2.66 -11.81,-18.87 -2.82,-21.44 -19.81,-23.07 -19.81,-23.07 0,0 -4.46,-17.42 -13.21,-29.75 13.1,18.51 -41.37,-25.04 -55.97,-36.84 -13.11,-4.1 -25.98,-9.02 -38.14,-14.9 0,0 -19.1,-21.98 -20.77,-36.04 -7.45,-5.53 -14.65,-10.58 -20.85,-14.89 -22.78,-3.53 -52.21,-11.16 -76.65,-28.07 l -65.64,-72.81 -57.17,-45.02 c 0,0 -58.12,-98.57 23.57,-32.49 l 41.22,54.89 32.04,-4.53 -50.38,-54.95 c 0,0 -63.79,-82.5 30.27,-8.44 28.59,22.48 52.13,58.78 52.13,58.78 l 35.61,17.12 c -19.48,-38.25 -43.8,-90.72 -32.28,-93.91 18.3,-5.13 41.55,62.63 41.55,62.63 0,0 -16.77,-54.74 0.54,-67.03 17.3,-12.33 26.56,66.43 26.56,66.43 l 8.88,7.17 c 5.77,-7.69 11.92,-15.08 17.71,-20.26 -0.08,-20.98 2.12,-43.11 12.34,-41.98 19.24,2.04 28.49,87.02 51.01,95.62 l 2.04,0.95 c 3.96,-22.52 9.99,-46.16 19.1,-58.53 -13.84,-47.64 -36.4,-130.8 -26.64,-135.75 13.68,-6.95 29.4,78.76 29.4,78.76 0,0 -11.18,-69.26 1.96,-85.33 13.13,-16.11 33.37,86.18 33.37,86.18 l 25.92,80.52 c 0,0 -18.4,-97.4 -4.18,-95.25 14.2,2.14 15.51,60.63 31.95,71.03 16.49,10.37 10.75,0.47 10.75,0.47 0,0 -2.36,-78.9 8.37,-46.93 5.95,17.88 11.87,49.39 17.35,73.02 l 12.29,-34.85 6.25,2.17 c 2.94,-27.73 9.43,-39.25 29.97,35.43 16.3,59.32 20.87,77.86 20.87,77.86 l 8.98,2.62 -67.32,-625.8 c 37.7,-16.15 72.58,-23.43 102.97,-25.71 v 1986.82 l -258.95,-325.59" /><path
         id="path94"
         style="fill:#1c4362;fill-opacity:1;fill-rule:nonzero;stroke:none"
         d="m 8249.85,2537.71 -11.68,16.25 c 53.18,-3.68 -36.56,54.91 -36.56,54.91 -36.76,17.98 -28.96,20.5 -41.21,27.44 -32.05,18.34 -86.54,52.31 -67.3,36.29 -11.13,9.26 -56.32,14.08 -56.32,14.08 0,0 -26.58,-7.89 -27.18,6.74 -0.64,14.65 -12.24,33.69 -12.24,33.69 l -25.03,8.75 c 2.29,12.32 0.52,29.5 -4.34,45.43 14.09,-3.18 25.99,-8.47 33.14,-17.41 34.22,-42.5 43.37,-5.46 9.48,29.77 l 71.86,-40.88 -1.28,29.22 66.79,-48.38 71.18,-26.24 c 0,0 -11.72,21.45 -55.98,48.89 -44.31,27.35 -116.19,68.3 -116.19,68.3 0,0 -113.86,17.04 -131.27,45.55 -5.99,9.85 -15.02,21.22 -24.29,31.97 54.8,-18.26 111.52,-33.76 111.52,-33.76 l -73.63,40.8 -94.13,51.08 -47.49,46.06 c -8.68,24.18 -8.88,45.04 -5.56,62.13 1.32,-4.19 2.62,-8.29 3.91,-12.18 -1.73,-26.61 12.13,-44 12.13,-44 l 21.56,56.78 0.33,-0.66 -5.2,-26.08 c 0,0 15,-13.98 23.18,-38.08 3.34,-9.66 5.3,-1.99 6.47,10.53 0.86,-0.48 1.77,-0.8 2.68,-0.82 7.23,-0.49 4.03,23.47 -0.87,47.43 0,1.03 0,1.83 0,1.83 l 10.13,-6.32 11.18,-26.44 c 0,0 28.94,-100.12 40.66,-83 l 0.68,1.44 c 8.49,-14.85 9.6,12.07 9.07,37.43 6.96,-17.84 14.96,-33.3 20.91,-29.62 5.08,3.15 -1.67,29.15 -11.67,59.58 l 22.15,-12.11 c 0,0 23.84,-52.71 38.61,-61.84 14.79,-9.12 -9.68,58.23 -9.68,58.23 l 51.67,-32.03 c 0,0 31,-52.37 45.36,-51.76 14.35,0.63 -20.04,48.02 -20.04,48.02 l 44.72,-37.14 c 33.97,-37.64 75.92,-11.4 46.65,1.98 -29.39,13.39 -126.14,92.32 -126.14,92.32 0,0 -53.38,70.93 -90.74,103.5 -12.03,10.53 -31.78,17.56 -52.98,22.43 l -18.72,43.96 c 1.97,0.26 3.51,1.56 4.91,3.26 l 47.43,-36.89 20.87,15.55 19.61,-38.26 29.5,-18.24 -1.67,39 c 0,0 14.79,-9.12 26.4,-28.19 11.55,-18.98 40.47,-22.63 40.47,-22.63 l -38.77,66.69 26.37,-28.2 c 33.72,-32.72 54.62,-17.14 54.62,-17.14 l -23.8,52.7 c 0,0 -70.07,40.93 -117.3,53.56 -32.59,8.71 -117.99,94 -167.86,146.19 0.05,8.79 -0.43,38.84 -8.95,60.19 21.89,-9.53 54.7,-27.39 55.05,-49.63 0.61,-33.4 84.81,-9.38 84.81,-9.38 l -34.48,49.85 c 0,0 43.67,-12.83 60.16,-19.42 16.45,-6.59 37.95,-5.67 37.95,-5.67 l -280.1,370.12 V 1788.41 c 70.76,-5.35 116.99,16.35 116.99,16.35 0,0 -68.58,640.2 -58.59,640.59 11.58,0.52 41.82,-108.11 54.64,-136.85 12.83,-28.76 -8.41,87.57 -8.41,87.57 0,0 24.74,-35.59 46.19,-49.27 21.51,-13.74 16.65,-116.53 35.54,-123.01 18.82,-6.57 -7.71,124.18 -7.71,124.18 l 30.97,-71.97 c 0,0 22.31,-86.89 40.53,-78.79 18.22,8.11 6.42,66.19 6.42,66.19 0,0 17.05,-72.56 35.6,-71.78 18.54,0.83 -41.06,144.8 -41.06,144.8 l -28.35,64.74 c 28.12,-6.09 21.55,65.07 -2.84,93.33 -4.25,4.88 -8.86,6.86 -13.64,7.13 -1.99,5.85 -3.48,9.84 -3.48,9.84 0,0 36.96,-22.84 69.61,-31.23 32.72,-8.34 21.32,-77.21 50.21,-80.82 28.9,-3.69 -7.17,82.72 -7.17,82.72 l 45.14,-46.89 c 0,0 31.21,-57.31 59.7,-51.16 28.49,6.1 12.46,44.46 12.46,44.46 0,0 23.64,-47.79 52.31,-46.56 28.7,1.2 -58.01,95.15 -58.01,95.15 l -41.33,42.24 c 16.17,-1.17 25.24,4.75 28.37,13.56 17.77,-20.35 13.56,-69.94 37.95,-73.03 28.93,-3.6 -7.13,82.76 -7.13,82.76 l 45.12,-46.89 c 0,0 31.23,-57.26 59.7,-51.18 28.47,6.08 12.45,44.52 12.45,44.52 0,0 23.62,-47.79 52.28,-46.6 28.74,1.22 -57.98,95.2 -57.98,95.2" /><path
         id="path96"
         style="fill:#251b13;fill-opacity:1;fill-rule:nonzero;stroke:none"
         d="m 3662.87,1119.06 h -71.77 v 128.84 h 71.77 v -128.84" /><path
         id="path98"
         style="fill:#251b13;fill-opacity:1;fill-rule:nonzero;stroke:none"
         d="m 4291.52,1298.62 h -51.94 v 124.69 h 51.94 v -124.69" /><path
         id="path100"
         style="fill:#251b13;fill-opacity:1;fill-rule:nonzero;stroke:none"
         d="m 4730,1352.81 h -25.98 v 124.72 H 4730 v -124.72" /><path
         id="path102"
         style="fill:#251b13;fill-opacity:1;fill-rule:nonzero;stroke:none"
         d="m 4615.41,1402.48 h -25.96 v 109.56 h 25.96 v -109.56" /><path
         id="path104"
         style="fill:#fde3b2;fill-opacity:1;fill-rule:nonzero;stroke:none"
         d="m 3363.38,1298.62 h -36.7 v 168.86 h 36.7 v -168.86" /><path
         id="path106"
         style="fill:#bba883;fill-opacity:1;fill-rule:nonzero;stroke:none"
         d="m 3345.03,1298.62 h -18.35 v 168.86 h 18.35 v -168.86" /><path
         id="path108"
         style="fill:#fde3b2;fill-opacity:1;fill-rule:nonzero;stroke:none"
         d="m 3154.5,1252.23 h -52.28 v 213.33 h 52.28 v -213.33" /><path
         id="path110"
         style="fill:#bba883;fill-opacity:1;fill-rule:nonzero;stroke:none"
         d="m 3128.36,1252.23 h -26.14 v 213.33 h 26.14 v -213.33" /><path
         id="path112"
         style="fill:#fde3b2;fill-opacity:1;fill-rule:nonzero;stroke:none"
         d="m 3578.12,1328.33 h -39.93 v 183.79 h 39.93 v -183.79" /><path
         id="path114"
         style="fill:#bba883;fill-opacity:1;fill-rule:nonzero;stroke:none"
         d="m 3558.15,1328.33 h -19.96 v 183.79 h 19.96 v -183.79" /><path
         id="path116"
         style="fill:#613d18;fill-opacity:1;fill-rule:nonzero;stroke:none"
         d="m 4635.27,1520.84 -433.44,-29.09 -103.91,16.84 -284.62,31.9 -190.15,-50.32 317.74,-50.28 -993.71,-220.85 439.19,-39.25 912.75,260.1 481.42,44.15 -145.27,36.8" /><path
         id="path118"
         style="fill:#fde3b2;fill-opacity:1;fill-rule:nonzero;stroke:none"
         d="m 3962.07,1443.72 h -24.81 v 117.43 h 24.81 v -117.43" /><path
         id="path120"
         style="fill:#bba883;fill-opacity:1;fill-rule:nonzero;stroke:none"
         d="m 3949.66,1443.72 h -12.4 v 117.43 h 12.4 v -117.43" /><path
         id="path122"
         style="fill:#fde3b2;fill-opacity:1;fill-rule:nonzero;stroke:none"
         d="m 3845.93,1465.66 h -22.76 v 107.8 h 22.76 v -107.8" /><path
         id="path124"
         style="fill:#bba883;fill-opacity:1;fill-rule:nonzero;stroke:none"
         d="m 3834.55,1465.66 h -11.38 v 107.8 h 11.38 v -107.8" /><path
         id="path126"
         style="fill:#fde3b2;fill-opacity:1;fill-rule:nonzero;stroke:none"
         d="m 3770.85,1472.73 h -22.75 v 107.77 h 22.75 v -107.77" /><path
         id="path128"
         style="fill:#bba883;fill-opacity:1;fill-rule:nonzero;stroke:none"
         d="m 3759.48,1472.73 h -11.38 v 107.77 h 11.38 v -107.77" /><path
         id="path130"
         style="fill:#fde3b2;fill-opacity:1;fill-rule:nonzero;stroke:none"
         d="m 3711.5,1481.03 h -20.57 v 102.99 h 20.57 v -102.99" /><path
         id="path132"
         style="fill:#bba883;fill-opacity:1;fill-rule:nonzero;stroke:none"
         d="m 3701.23,1481.03 h -10.3 v 102.99 h 10.3 v -102.99" /><path
         id="path134"
         style="fill:#fde3b2;fill-opacity:1;fill-rule:nonzero;stroke:none"
         d="m 3645.25,1488.91 h -18.27 v 98.36 h 18.27 v -98.36" /><path
         id="path136"
         style="fill:#bba883;fill-opacity:1;fill-rule:nonzero;stroke:none"
         d="m 3636.12,1488.91 h -9.14 v 98.36 h 9.14 v -98.36" /><path
         id="path138"
         style="fill:#e4cba6;fill-opacity:1;fill-rule:nonzero;stroke:none"
         d="m 3963.56,1553.06 -336.58,24.93 v 15.86 l 337.01,-29.45 -0.43,-11.34" /><path
         id="path140"
         style="fill:#fde3b2;fill-opacity:1;fill-rule:nonzero;stroke:none"
         d="m 3756.88,1402.48 h -29.36 v 135.17 h 29.36 v -135.17" /><path
         id="path142"
         style="fill:#bba883;fill-opacity:1;fill-rule:nonzero;stroke:none"
         d="m 3742.19,1402.48 h -14.67 v 135.17 h 14.67 v -135.17" /><path
         id="path144"
         style="fill:#fde3b2;fill-opacity:1;fill-rule:nonzero;stroke:none"
         d="m 3865.27,1426.85 h -25.03 v 115.2 h 25.03 v -115.2" /><path
         id="path146"
         style="fill:#bba883;fill-opacity:1;fill-rule:nonzero;stroke:none"
         d="m 3852.76,1426.85 h -12.52 v 115.2 h 12.52 v -115.2" /><path
         id="path148"
         style="fill:#fde3b2;fill-opacity:1;fill-rule:nonzero;stroke:none"
         d="m 3963.33,1546.93 -810.12,-117.94 -5.09,36.2 815.87,99.21 -0.66,-17.47" /><path
         id="path150"
         style="fill:#fde3b2;fill-opacity:1;fill-rule:nonzero;stroke:none"
         d="m 3962.58,1509.28 -813.79,-131.18 1.41,21.08 813.88,120.36 -1.5,-10.26" /><path
         id="path152"
         style="fill:#fde3b2;fill-opacity:1;fill-rule:nonzero;stroke:none"
         d="m 3517.64,1201.88 h -57.65 v 238.01 h 57.65 v -238.01" /><path
         id="path154"
         style="fill:#bba883;fill-opacity:1;fill-rule:nonzero;stroke:none"
         d="m 3488.8,1201.88 h -28.81 v 238.01 h 28.81 v -238.01" /><path
         id="path156"
         style="fill:#fde3b2;fill-opacity:1;fill-rule:nonzero;stroke:none"
         d="m 3721.14,1247.58 h -48.92 v 225.15 h 48.92 v -225.15" /><path
         id="path158"
         style="fill:#bba883;fill-opacity:1;fill-rule:nonzero;stroke:none"
         d="m 3696.67,1247.58 h -24.45 v 225.15 h 24.45 v -225.15" /><path
         id="path160"
         style="fill:#fde3b2;fill-opacity:1;fill-rule:nonzero;stroke:none"
         d="m 3935.88,1323.31 h -39.93 v 183.76 h 39.93 v -183.76" /><path
         id="path162"
         style="fill:#bba883;fill-opacity:1;fill-rule:nonzero;stroke:none"
         d="m 3915.92,1323.31 h -19.97 v 183.76 h 19.97 v -183.76" /><path
         id="path164"
         style="fill:#fde3b2;fill-opacity:1;fill-rule:nonzero;stroke:none"
         d="m 4128.4,1382.78 h -34.49 v 158.8 h 34.49 v -158.8" /><path
         id="path166"
         style="fill:#bba883;fill-opacity:1;fill-rule:nonzero;stroke:none"
         d="m 4111.17,1382.78 h -17.26 v 158.8 h 17.26 v -158.8" /><path
         id="path168"
         style="fill:#fde3b2;fill-opacity:1;fill-rule:nonzero;stroke:none"
         d="m 4237.03,1413.36 h -31.21 v 143.65 h 31.21 v -143.65" /><path
         id="path170"
         style="fill:#bba883;fill-opacity:1;fill-rule:nonzero;stroke:none"
         d="m 4221.41,1413.36 h -15.59 v 143.65 h 15.59 v -143.65" /><path
         id="path172"
         style="fill:#fde3b2;fill-opacity:1;fill-rule:nonzero;stroke:none"
         d="m 4315.48,1435.42 h -24.83 v 140.34 h 24.83 v -140.34" /><path
         id="path174"
         style="fill:#bba883;fill-opacity:1;fill-rule:nonzero;stroke:none"
         d="m 4303.07,1435.42 h -12.42 v 140.34 h 12.42 v -140.34" /><path
         id="path176"
         style="fill:#e4cba6;fill-opacity:1;fill-rule:nonzero;stroke:none"
         d="m 4479.91,1453.43 h -21.13 v 117.36 h 21.13 v -117.36" /><path
         id="path178"
         style="fill:#e4cba6;fill-opacity:1;fill-rule:nonzero;stroke:none"
         d="m 4469.35,1453.43 h -10.57 v 117.36 h 10.57 v -117.36" /><path
         id="path180"
         style="fill:#e4cba6;fill-opacity:1;fill-rule:nonzero;stroke:none"
         d="m 4636.57,1465.85 h -21.16 v 117.36 h 21.16 v -117.36" /><path
         id="path182"
         style="fill:#e4cba6;fill-opacity:1;fill-rule:nonzero;stroke:none"
         d="m 4777.12,1478.95 h -21.14 v 117.37 h 21.14 v -117.37" /><path
         id="path184"
         style="fill:#251b13;fill-opacity:1;fill-rule:nonzero;stroke:none"
         d="m 2947.18,1219.04 v -39.25 l 436.74,-31.91 2.45,31.91 -439.19,39.25" /><path
         id="path186"
         style="fill:#472d15;fill-opacity:1;fill-rule:nonzero;stroke:none"
         d="m 3386.37,1179.79 -2.45,-31.91 916.44,267.47 -1.24,24.54 -912.75,-260.1" /><path
         id="path188"
         style="fill:#472d15;fill-opacity:1;fill-rule:nonzero;stroke:none"
         d="m 4299.12,1439.89 1.24,-24.54 480.18,56.41 v 12.28 l -481.42,-44.15" /><path
         id="path190"
         style="fill:#fde3b2;fill-opacity:1;fill-rule:nonzero;stroke:none"
         d="m 4307.71,1558.25 -808.72,-152 -6.58,35.95 815.25,133.56 0.05,-17.51" /><path
         id="path192"
         style="fill:#fde3b2;fill-opacity:1;fill-rule:nonzero;stroke:none"
         d="m 4315.48,1520.17 -811.84,-178.1 -7.66,35.77 818.96,159.81 0.54,-17.48" /><path
         id="path194"
         style="fill:#e4cba6;fill-opacity:1;fill-rule:nonzero;stroke:none"
         d="m 4779.16,1583.32 -463.68,-24.04 v 15.94 l 462.81,24.14 0.87,-16.04" /><path
         id="path196"
         style="fill:#f7f45e;fill-opacity:1;fill-rule:nonzero;stroke:none"
         d="m 3730.16,4278.84 c 0,-149.22 -120.96,-270.18 -270.17,-270.18 -149.22,0 -270.19,120.96 -270.19,270.18 0,149.22 120.97,270.17 270.19,270.17 149.21,0 270.17,-120.95 270.17,-270.17" /><path
         id="path198"
         style="fill:#f79144;fill-opacity:1;fill-rule:nonzero;stroke:none"
         d="m 3670.14,4278.84 c 0,-116.06 -94.1,-210.15 -210.15,-210.15 -116.06,0 -210.16,94.09 -210.16,210.15 0,116.06 94.1,210.14 210.16,210.14 116.05,0 210.15,-94.08 210.15,-210.14" /><path
         id="path200"
         style="fill:#100f0d;fill-opacity:1;fill-rule:nonzero;stroke:none"
         d="m 6723.13,4765.68 c 0,0 140.05,70.03 255.11,0 0,0 130.06,61.14 260.12,15.55 0,0 -207.71,2.6 -257.63,-40.57 0,0 -125.67,57.46 -257.6,25.02" /><path
         id="path202"
         style="fill:#100f0d;fill-opacity:1;fill-rule:nonzero;stroke:none"
         d="m 7454.84,4645.62 c 0,0 67.9,43.34 123.68,0 0,0 63.03,37.84 126.07,9.64 0,0 -100.67,1.59 -124.88,-25.12 0,0 -60.92,35.56 -124.87,15.48" /><path
         id="path204"
         style="fill:#ffffff;fill-opacity:1;fill-rule:nonzero;stroke:none"
         d="m 726.797,1149.47 c 0,8.88 -47.703,16.21 -108.777,17.08 55.73,15.82 95.164,34.3 89.71,42.45 -5.343,8 -51.625,3.41 -106.671,-10.07 40.429,27.22 64.566,52.6 54.886,58.74 -9.933,6.28 -51.828,-9.91 -95.996,-36.59 21.707,36.12 28.946,66.81 15.946,70.15 -12.704,3.25 -40.305,-20.68 -64.176,-54.82 -1.801,37.31 -13.121,66.05 -26.824,66.05 -14.059,0 -25.61,-30.17 -26.969,-68.79 -25.035,35.25 -54.235,60.2 -67.164,56.74 -12.637,-3.36 -5.379,-32.66 15.914,-67.45 -42.992,25.56 -83.145,40.83 -92.848,34.69 -9.922,-6.26 15.645,-32.76 57.875,-60.7 -57.129,13.72 -105.664,18.32 -110.945,10.1 -5.16,-8.04 32.699,-25.49 86.68,-40.61 -59,-1.13 -104.454,-8.28 -104.458,-16.97 0,-8.89 47.704,-16.17 108.797,-17.02 -55.757,-15.84 -95.195,-34.32 -89.742,-42.5 5.344,-7.97 51.633,-3.4 106.692,10.08 -40.45,-27.2 -64.586,-52.6 -54.899,-58.74 9.938,-6.26 51.836,9.89 95.992,36.63 -21.715,-36.15 -28.957,-66.84 -15.949,-70.19 12.707,-3.26 40.305,20.69 64.172,54.84 1.812,-37.31 13.141,-66.07 26.836,-66.07 14.051,0 25.601,30.16 26.973,68.79 25.035,-35.27 54.234,-60.17 67.164,-56.72 12.632,3.36 5.379,32.64 -15.926,67.45 43,-25.58 83.156,-40.83 92.848,-34.73 9.925,6.31 -15.633,32.78 -57.852,60.73 57.109,-13.74 105.644,-18.33 110.937,-10.09 5.157,8.03 -32.707,25.48 -86.687,40.59 58.996,1.13 104.449,8.3 104.461,16.95" /><path
         id="path206"
         style="fill:#f6831d;fill-opacity:1;fill-rule:nonzero;stroke:none"
         d="m 588.938,1149.47 c 0,-36.33 -46.583,-65.78 -104.043,-65.78 -57.477,0 -104.059,29.45 -104.059,65.78 0,36.36 46.582,65.82 104.059,65.82 57.46,0 104.043,-29.46 104.043,-65.82" /><path
         id="path208"
         style="fill:#ffffff;fill-opacity:1;fill-rule:nonzero;stroke:none"
         d="m 1205.69,668.949 c 0.08,7.91 -42.54,14.883 -97.16,16.16 50,13.723 85.42,29.891 80.59,37.262 -4.7,7.199 -46.15,3.488 -95.5,-8.09 36.4,23.961 58.2,46.449 49.6,52.039 -8.84,5.711 -46.45,-8.429 -86.19,-31.922 19.72,32.102 26.47,59.512 14.85,62.614 -11.34,3.039 -36.24,-18.18 -57.87,-48.512 -1.3,33.371 -11.19,59.199 -23.444,59.332 -12.558,0.078 -23.164,-26.812 -24.699,-61.332 -22.094,31.75 -48.015,54.309 -59.601,51.32 -11.34,-2.929 -5.094,-29.168 13.668,-60.468 -38.246,23.238 -74.043,37.226 -82.766,31.808 -8.941,-5.539 13.711,-29.449 51.27,-54.801 -50.997,12.801 -94.383,17.289 -99.184,9.961 -4.676,-7.148 29.051,-23.058 77.23,-37.031 -52.789,-0.527 -93.531,-6.547 -93.609,-14.289 -0.07,-7.98 42.555,-14.91 97.191,-16.16 -50,-13.699 -85.437,-29.91 -80.628,-37.27 4.703,-7.191 46.164,-3.461 95.523,8.121 -36.398,-23.98 -58.203,-46.5 -49.594,-52.089 8.836,-5.7 46.446,8.449 86.176,31.937 -19.723,-32.109 -26.449,-59.488 -14.848,-62.629 11.332,-2.988 36.227,18.172 57.856,48.539 1.312,-33.41 11.207,-59.23 23.461,-59.328 12.568,-0.152 23.148,26.738 24.678,61.309 22.12,-31.75 48.03,-54.289 59.61,-51.321 11.34,2.922 5.11,29.172 -13.66,60.469 38.25,-23.199 74.05,-37.187 82.77,-31.816 8.93,5.547 -13.72,29.468 -51.25,54.808 50.98,-12.761 94.37,-17.289 99.16,-9.949 4.67,7.141 -29.05,23.09 -77.22,37.039 52.79,0.531 93.52,6.551 93.59,14.289" /><path
         id="path210"
         style="fill:#f6831d;fill-opacity:1;fill-rule:nonzero;stroke:none"
         d="m 1082.36,670.109 c -0.29,-32.507 -42.22,-58.488 -93.61,-58.007 -51.426,0.488 -92.855,27.23 -92.559,59.757 0.313,32.481 42.231,58.45 93.653,57.993 51.406,-0.5 92.836,-27.25 92.516,-59.743" /><path
         id="path212"
         style="fill:#ffffff;fill-opacity:1;fill-rule:nonzero;stroke:none"
         d="m 1986.05,238.75 c 0.07,7.93 -42.55,14.871 -97.17,16.172 49.99,13.699 85.41,29.867 80.6,37.277 -4.7,7.16 -46.15,3.449 -95.5,-8.129 36.39,23.989 58.19,46.489 49.59,52.039 -8.84,5.731 -46.46,-8.398 -86.19,-31.91 19.72,32.121 26.47,59.5 14.86,62.621 -11.35,3.02 -36.24,-18.179 -57.88,-48.5 -1.3,33.371 -11.18,59.18 -23.45,59.309 -12.56,0.101 -23.16,-26.777 -24.7,-61.309 -22.09,31.731 -48.01,54.301 -59.59,51.321 -11.34,-2.93 -5.1,-29.172 13.66,-60.493 -38.24,23.243 -74.04,37.223 -82.76,31.801 -8.95,-5.527 13.71,-29.429 51.27,-54.769 -50.99,12.769 -94.4,17.261 -99.18,9.949 -4.69,-7.168 29.05,-23.078 77.22,-37.039 -52.79,-0.539 -93.52,-6.551 -93.6,-14.301 -0.07,-7.957 42.55,-14.898 97.19,-16.148 -50,-13.7 -85.43,-29.891 -80.63,-37.27 4.71,-7.191 46.16,-3.461 95.52,8.117 -36.4,-23.988 -58.21,-46.496 -49.59,-52.078 8.83,-5.711 46.44,8.449 86.17,31.949 -19.71,-32.14 -26.46,-59.519 -14.84,-62.648 11.33,-2.992 36.22,18.187 57.86,48.559 1.3,-33.418 11.2,-59.231 23.45,-59.34 12.57,-0.141 23.14,26.742 24.69,61.312 22.12,-31.742 48.02,-54.301 59.61,-51.32 11.34,2.93 5.1,29.168 -13.67,60.469 38.25,-23.219 74.05,-37.18 82.77,-31.801 8.93,5.531 -13.71,29.469 -51.24,54.789 50.97,-12.77 94.36,-17.277 99.15,-9.949 4.68,7.129 -29.05,23.082 -77.21,37.019 52.77,0.539 93.51,6.571 93.59,14.301" /><path
         id="path214"
         style="fill:#f6831d;fill-opacity:1;fill-rule:nonzero;stroke:none"
         d="m 1862.71,239.902 c -0.29,-32.511 -42.22,-58.472 -93.61,-57.992 -51.42,0.469 -92.85,27.238 -92.55,59.75 0.3,32.488 42.23,58.449 93.65,57.988 51.4,-0.488 92.82,-27.257 92.51,-59.746" /><path
         id="path216"
         style="fill:#ffffff;fill-opacity:1;fill-rule:nonzero;stroke:none"
         d="m 2351.92,732.988 c 0.08,7.953 -42.55,14.891 -97.18,16.192 50,13.699 85.43,29.89 80.6,37.242 -4.7,7.168 -46.15,3.488 -95.5,-8.113 36.39,23.98 58.2,46.472 49.6,52.062 -8.85,5.699 -46.46,-8.41 -86.19,-31.93 19.72,32.141 26.46,59.52 14.85,62.598 -11.34,3.051 -36.23,-18.141 -57.88,-48.469 -1.29,33.379 -11.17,59.172 -23.43,59.309 -12.57,0.101 -23.17,-26.777 -24.71,-61.328 -22.09,31.719 -48.01,54.301 -59.59,51.32 -11.34,-2.93 -5.1,-29.16 13.66,-60.48 -38.24,23.257 -74.04,37.238 -82.76,31.82 -8.95,-5.539 13.7,-29.441 51.26,-54.77 -50.99,12.739 -94.39,17.258 -99.17,9.95 -4.68,-7.18 29.04,-23.082 77.22,-37.039 -52.79,-0.543 -93.53,-6.563 -93.6,-14.332 -0.08,-7.93 42.55,-14.872 97.18,-16.149 -49.99,-13.699 -85.43,-29.871 -80.63,-37.269 4.71,-7.172 46.17,-3.43 95.53,8.136 -36.4,-23.996 -58.21,-46.496 -49.6,-52.078 8.84,-5.691 46.45,8.422 86.18,31.949 -19.72,-32.16 -26.45,-59.539 -14.84,-62.629 11.33,-3.019 36.21,18.161 57.85,48.52 1.31,-33.398 11.21,-59.211 23.46,-59.34 12.57,-0.109 23.15,26.77 24.69,61.34 22.11,-31.77 48.02,-54.328 59.61,-51.32 11.33,2.902 5.1,29.152 -13.67,60.472 38.25,-23.222 74.05,-37.211 82.77,-31.832 8.93,5.559 -13.72,29.481 -51.25,54.801 50.97,-12.75 94.36,-17.269 99.16,-9.949 4.67,7.148 -29.05,23.078 -77.22,37.019 52.78,0.539 93.51,6.59 93.6,14.297" /><path
         id="path218"
         style="fill:#f6831d;fill-opacity:1;fill-rule:nonzero;stroke:none"
         d="m 2228.58,734.16 c -0.3,-32.512 -42.22,-58.469 -93.61,-57.988 -51.43,0.488 -92.86,27.207 -92.56,59.719 0.31,32.488 42.23,58.461 93.65,58 51.41,-0.5 92.84,-27.243 92.52,-59.731" /><path
         id="path220"
         style="fill:#ffffff;fill-opacity:1;fill-rule:nonzero;stroke:none"
         d="m 4392.83,312.809 c 0.08,7.933 -42.54,14.871 -97.16,16.171 49.99,13.7 85.4,29.879 80.59,37.25 -4.71,7.18 -46.15,3.489 -95.51,-8.121 36.41,24.012 58.21,46.493 49.59,52.063 -8.83,5.738 -46.44,-8.391 -86.17,-31.93 19.73,32.137 26.46,59.52 14.85,62.637 -11.34,3.031 -36.24,-18.18 -57.87,-48.5 -1.31,33.371 -11.19,59.16 -23.45,59.312 -12.57,0.11 -23.17,-26.781 -24.7,-61.332 -22.1,31.75 -48.01,54.332 -59.59,51.34 -11.35,-2.929 -5.1,-29.168 13.65,-60.508 -38.23,23.258 -74.04,37.25 -82.75,31.829 -8.95,-5.54 13.71,-29.438 51.26,-54.801 -50.99,12.781 -94.39,17.293 -99.17,9.972 -4.69,-7.171 29.04,-23.07 77.22,-37.039 -52.79,-0.543 -93.53,-6.55 -93.6,-14.3 -0.07,-7.954 42.54,-14.903 97.18,-16.153 -49.99,-13.699 -85.43,-29.89 -80.63,-37.258 4.71,-7.203 46.16,-3.472 95.52,8.11 -36.4,-23.981 -58.2,-46.5 -49.58,-52.082 8.82,-5.707 46.43,8.422 86.17,31.953 -19.72,-32.152 -26.45,-59.543 -14.85,-62.652 11.34,-2.989 36.23,18.171 57.86,48.562 1.31,-33.41 11.2,-59.23 23.46,-59.332 12.57,-0.148 23.14,26.742 24.68,61.289 22.11,-31.75 48.03,-54.289 59.61,-51.32 11.33,2.953 5.11,29.152 -13.67,60.492 38.26,-23.231 74.04,-37.211 82.78,-31.813 8.93,5.543 -13.71,29.454 -51.26,54.793 50.99,-12.769 94.37,-17.3 99.16,-9.949 4.67,7.129 -29.05,23.059 -77.21,37.008 52.77,0.531 93.51,6.59 93.59,14.309" /><path
         id="path222"
         style="fill:#f6831d;fill-opacity:1;fill-rule:nonzero;stroke:none"
         d="m 4269.5,313.961 c -0.29,-32.512 -42.21,-58.481 -93.61,-58 -51.44,0.48 -92.86,27.23 -92.56,59.738 0.3,32.481 42.23,58.473 93.65,57.992 51.42,-0.472 92.83,-27.242 92.52,-59.73" /><path
         id="path224"
         style="fill:#ffffff;fill-opacity:1;fill-rule:nonzero;stroke:none"
         d="m 3162.24,143.242 c 0.05,4.828 -25.88,9.039 -59.11,9.828 30.41,8.352 51.95,18.211 49.03,22.66 -2.86,4.372 -28.08,2.122 -58.11,-4.921 22.16,14.582 35.41,28.261 30.17,31.679 -5.37,3.473 -28.25,-5.129 -52.43,-19.437 12.01,19.551 16.1,36.187 9.04,38.078 -6.9,1.859 -22.04,-11.027 -35.2,-29.488 -0.8,20.308 -6.81,36.031 -14.27,36.089 -7.64,0.059 -14.09,-16.3 -15.03,-37.308 -13.44,19.328 -29.21,33.047 -36.26,31.207 -6.9,-1.75 -3.1,-17.731 8.31,-36.797 -23.26,14.16 -45.04,22.688 -50.34,19.367 -5.44,-3.347 8.33,-17.898 31.19,-33.328 -31.03,7.758 -57.43,10.508 -60.34,6.051 -2.85,-4.363 17.67,-14.024 46.98,-22.512 -32.12,-0.328 -56.9,-4 -56.95,-8.719 -0.04,-4.839 25.89,-9.043 59.14,-9.82 -30.43,-8.32 -51.99,-18.18 -49.06,-22.691 2.86,-4.36 28.08,-2.098 58.11,4.968 -22.15,-14.609 -35.41,-28.3082 -30.17,-31.6871 5.37,-3.4726 28.26,5.1289 52.43,19.4301 -12,-19.5707 -16.09,-36.2113 -9.03,-38.1097 6.89,-1.8321 22.03,11.039 35.19,29.5195 0.8,-20.3399 6.82,-36.0117 14.27,-36.0703 7.66,-0.1094 14.09,16.25 15.02,37.2812 13.46,-19.3203 29.22,-33.0234 36.27,-31.2304 6.9,1.8007 3.1,17.7382 -8.32,36.8007 23.28,-14.1132 45.05,-22.6328 50.36,-19.3632 5.43,3.3906 -8.34,17.9412 -31.18,33.3632 31.02,-7.762 57.41,-10.543 60.32,-6.07 2.86,4.347 -17.67,14.027 -46.98,22.539 32.12,0.308 56.9,3.988 56.95,8.691" /><path
         id="path226"
         style="fill:#f6831d;fill-opacity:1;fill-rule:nonzero;stroke:none"
         d="m 3087.21,143.941 c -0.18,-19.769 -25.7,-35.582 -56.96,-35.289 -31.28,0.309 -56.49,16.559 -56.3,36.368 0.19,19.75 25.69,35.562 56.97,35.261 31.27,-0.281 56.48,-16.582 56.29,-36.34" /><path
         id="path228"
         style="fill:#ffffff;fill-opacity:1;fill-rule:nonzero;stroke:none"
         d="m 3917.27,704.059 c 0.04,4.832 -25.88,9.043 -59.11,9.832 30.41,8.351 51.95,18.187 49.03,22.66 -2.87,4.39 -28.08,2.101 -58.11,-4.949 22.15,14.609 35.41,28.269 30.17,31.687 -5.37,3.461 -28.25,-5.129 -52.43,-19.418 12,19.551 16.1,36.211 9.03,38.098 -6.89,1.84 -22.04,-11.047 -35.2,-29.52 -0.8,20.321 -6.8,36.02 -14.26,36.071 -7.64,0.07 -14.1,-16.27 -15.03,-37.301 -13.44,19.332 -29.21,33.051 -36.26,31.211 -6.9,-1.75 -3.1,-17.739 8.31,-36.801 -23.26,14.172 -45.05,22.691 -50.35,19.391 -5.44,-3.379 8.35,-17.918 31.19,-33.348 -31.02,7.758 -57.42,10.527 -60.33,6.047 -2.86,-4.321 17.67,-14.008 46.97,-22.52 -32.11,-0.328 -56.89,-3.988 -56.94,-8.687 -0.05,-4.84 25.88,-9.063 59.14,-9.821 -30.43,-8.351 -51.99,-18.191 -49.06,-22.691 2.86,-4.359 28.07,-2.102 58.11,4.941 -22.14,-14.582 -35.41,-28.281 -30.17,-31.679 5.37,-3.481 28.25,5.129 52.42,19.429 -12,-19.531 -16.09,-36.203 -9.02,-38.101 6.88,-1.82 22.03,11.051 35.19,29.5 0.8,-20.289 6.82,-36 14.27,-36.07 7.65,-0.079 14.08,16.281 15.02,37.312 13.45,-19.32 29.22,-33.043 36.26,-31.23 6.91,1.769 3.11,17.738 -8.3,36.8 23.26,-14.14 45.04,-22.652 50.35,-19.371 5.42,3.379 -8.35,17.93 -31.18,33.36 31.01,-7.77 57.4,-10.512 60.32,-6.082 2.85,4.351 -17.67,14.062 -46.97,22.543 32.1,0.296 56.89,3.988 56.94,8.707" /><path
         id="path230"
         style="fill:#f6831d;fill-opacity:1;fill-rule:nonzero;stroke:none"
         d="m 3842.23,704.762 c -0.17,-19.782 -25.69,-35.582 -56.95,-35.293 -31.29,0.281 -56.49,16.543 -56.31,36.34 0.19,19.773 25.69,35.589 56.98,35.293 31.27,-0.313 56.47,-16.582 56.28,-36.34" /><path
         id="path232"
         style="fill:#ffffff;fill-opacity:1;fill-rule:nonzero;stroke:none"
         d="m 1137.22,192.402 c 0.05,4.817 -25.89,9.039 -59.12,9.828 30.42,8.34 51.96,18.211 49.03,22.649 -2.87,4.402 -28.07,2.133 -58.1,-4.918 22.14,14.59 35.4,28.269 30.17,31.668 -5.38,3.48 -28.26,-5.109 -52.43,-19.399 12,19.52 16.1,36.168 9.04,38.059 -6.91,1.859 -22.06,-11.039 -35.22,-29.48 -0.79,20.293 -6.8,36 -14.26,36.07 -7.639,0.062 -14.088,-16.297 -15.021,-37.301 -13.45,19.301 -29.207,33.043 -36.258,31.211 -6.903,-1.777 -3.098,-17.738 8.312,-36.797 -23.265,14.149 -45.043,22.688 -50.351,19.367 -5.446,-3.359 8.34,-17.898 31.183,-33.328 -31.019,7.758 -57.422,10.5 -60.34,6.051 -2.839,-4.363 17.684,-14.031 46.985,-22.523 -32.113,-0.329 -56.891,-3.989 -56.945,-8.707 -0.043,-4.84 25.89,-9.043 59.132,-9.832 -30.422,-8.321 -51.976,-18.188 -49.05,-22.68 2.863,-4.371 28.074,-2.078 58.113,4.961 -22.152,-14.629 -35.414,-28.301 -30.176,-31.68 5.375,-3.48 28.254,5.109 52.426,19.43 -11.992,-19.571 -16.098,-36.219 -9.031,-38.121 6.894,-1.828 22.039,11.05 35.199,29.519 0.801,-20.308 6.816,-36 14.282,-36.07 7.63,-0.078 14.07,16.262 15.01,37.293 13.45,-19.32 29.21,-33.043 36.26,-31.231 6.9,1.789 3.11,17.739 -8.31,36.789 23.27,-14.109 45.04,-22.621 50.36,-19.359 5.43,3.391 -8.35,17.949 -31.19,33.34 31.01,-7.742 57.41,-10.512 60.33,-6.051 2.84,4.36 -17.67,14.031 -46.98,22.539 32.11,0.313 56.89,4 56.95,8.703" /><path
         id="path234"
         style="fill:#f6831d;fill-opacity:1;fill-rule:nonzero;stroke:none"
         d="m 1062.18,193.09 c -0.17,-19.77 -25.69,-35.57 -56.96,-35.281 -31.279,0.3 -56.482,16.562 -56.302,36.363 0.184,19.738 25.691,35.539 56.972,35.269 31.28,-0.293 56.48,-16.589 56.29,-36.351" /><path
         id="path236"
         style="fill:#ffffff;fill-opacity:1;fill-rule:nonzero;stroke:none"
         d="m 436.902,542.551 c 0.051,4.828 -25.882,9.058 -59.121,9.84 30.418,8.339 51.961,18.191 49.039,22.668 -2.871,4.382 -28.082,2.121 -58.109,-4.93 22.148,14.57 35.41,28.269 30.168,31.672 -5.371,3.469 -28.25,-5.141 -52.426,-19.442 12,19.532 16.102,36.2 9.035,38.102 -6.902,1.828 -22.047,-11.07 -35.211,-29.5 -0.789,20.309 -6.8,35.988 -14.261,36.09 -7.633,0.058 -14.09,-16.289 -15.024,-37.321 -13.441,19.309 -29.211,33.032 -36.262,31.231 -6.894,-1.801 -3.093,-17.75 8.317,-36.801 -23.262,14.149 -45.043,22.641 -50.352,19.34 -5.445,-3.328 8.34,-17.879 31.188,-33.309 -31.024,7.77 -57.43,10.508 -60.336,6.059 -2.844,-4.371 17.676,-14.051 46.98,-22.539 -32.121,-0.313 -56.894,-3.992 -56.941,-8.711 -0.047,-4.828 25.883,-9.039 59.125,-9.82 -30.422,-8.34 -51.981,-18.18 -49.051,-22.668 2.863,-4.371 28.078,-2.133 58.113,4.957 -22.156,-14.629 -35.41,-28.297 -30.168,-31.707 5.372,-3.461 28.25,5.136 52.418,19.449 -11.992,-19.57 -16.093,-36.242 -9.035,-38.133 6.903,-1.816 22.047,11.063 35.207,29.543 0.789,-20.332 6.813,-36.031 14.274,-36.09 7.64,-0.082 14.078,16.278 15.019,37.309 13.446,-19.328 29.211,-33.051 36.266,-31.231 6.891,1.77 3.098,17.731 -8.32,36.789 23.273,-14.128 45.043,-22.636 50.355,-19.367 5.434,3.379 -8.348,17.949 -31.18,33.34 31.012,-7.75 57.411,-10.512 60.325,-6.039 2.847,4.328 -17.672,14.027 -46.973,22.52 32.109,0.328 56.887,4 56.941,8.699" /><path
         id="path238"
         style="fill:#f6831d;fill-opacity:1;fill-rule:nonzero;stroke:none"
         d="m 361.863,543.262 c -0.168,-19.77 -25.691,-35.59 -56.953,-35.301 -31.281,0.32 -56.492,16.578 -56.305,36.359 0.184,19.75 25.692,35.551 56.977,35.27 31.273,-0.289 56.473,-16.559 56.281,-36.328" /><path
         id="path240"
         style="fill:#ffffff;fill-opacity:1;fill-rule:nonzero;stroke:none"
         d="m 1176.89,1127.03 c 0.05,4.82 -25.88,9.02 -59.11,9.81 30.41,8.34 51.96,18.19 49.03,22.68 -2.86,4.37 -28.08,2.12 -58.1,-4.94 22.14,14.61 35.4,28.28 30.17,31.66 -5.38,3.49 -28.26,-5.13 -52.43,-19.41 12,19.56 16.09,36.21 9.03,38.1 -6.9,1.84 -22.05,-11.06 -35.21,-29.5 -0.79,20.31 -6.8,35.99 -14.25,36.07 -7.65,0.06 -14.1,-16.28 -15.03,-37.31 -13.45,19.31 -29.22,33.03 -36.263,31.23 -6.907,-1.79 -3.102,-17.74 8.313,-36.79 -23.27,14.13 -45.048,22.64 -50.349,19.35 -5.441,-3.36 8.332,-17.91 31.18,-33.32 -31.019,7.75 -57.422,10.51 -60.336,6.03 -2.847,-4.34 17.676,-14 46.977,-22.51 -32.106,-0.33 -56.891,-4 -56.942,-8.7 -0.039,-4.83 25.895,-9.06 59.141,-9.84 -30.426,-8.32 -51.988,-18.2 -49.059,-22.67 2.864,-4.38 28.078,-2.1 58.11,4.95 -22.149,-14.61 -35.414,-28.29 -30.168,-31.71 5.371,-3.45 28.25,5.13 52.416,19.48 -11.994,-19.57 -16.08,-36.22 -9.022,-38.12 6.892,-1.83 22.032,11.05 35.192,29.52 0.8,-20.33 6.83,-36.05 14.28,-36.11 7.64,-0.07 14.08,16.29 15.01,37.3 13.46,-19.32 29.22,-33.04 36.27,-31.21 6.9,1.76 3.1,17.75 -8.31,36.8 23.27,-14.13 45.05,-22.62 50.35,-19.37 5.43,3.36 -8.35,17.94 -31.18,33.33 31.01,-7.74 57.4,-10.5 60.32,-6.05 2.86,4.37 -17.66,14.05 -46.97,22.52 32.11,0.33 56.89,4.01 56.94,8.73" /><path
         id="path242"
         style="fill:#f6831d;fill-opacity:1;fill-rule:nonzero;stroke:none"
         d="m 1101.86,1127.71 c -0.18,-19.75 -25.7,-35.57 -56.96,-35.27 -31.28,0.29 -56.486,16.56 -56.306,36.33 0.191,19.77 25.696,35.57 56.976,35.3 31.28,-0.32 56.48,-16.58 56.29,-36.36" /><path
         id="path244"
         style="fill:#ffffff;fill-opacity:1;fill-rule:nonzero;stroke:none"
         d="m 2827.98,982.742 c 0.04,4.84 -25.89,9.067 -59.12,9.848 30.41,8.34 51.96,18.19 49.03,22.66 -2.86,4.39 -28.08,2.12 -58.1,-4.95 22.15,14.59 35.41,28.29 30.17,31.69 -5.38,3.46 -28.26,-5.13 -52.44,-19.4 12.01,19.5 16.1,36.17 9.04,38.08 -6.9,1.82 -22.04,-11.08 -35.2,-29.52 -0.8,20.31 -6.81,36.02 -14.27,36.08 -7.64,0.05 -14.09,-16.27 -15.02,-37.31 -13.45,19.32 -29.21,33.04 -36.26,31.23 -6.9,-1.78 -3.1,-17.76 8.31,-36.8 -23.27,14.15 -45.05,22.67 -50.35,19.35 -5.44,-3.36 8.33,-17.9 31.19,-33.31 -31.02,7.76 -57.43,10.51 -60.34,6.05 -2.85,-4.34 17.67,-14.03 46.98,-22.53 -32.11,-0.34 -56.9,-4 -56.94,-8.699 -0.05,-4.859 25.88,-9.063 59.13,-9.82 -30.43,-8.352 -51.98,-18.192 -49.05,-22.711 2.85,-4.34 28.08,-2.078 58.11,4.968 -22.16,-14.578 -35.41,-28.289 -30.17,-31.679 5.37,-3.469 28.24,5.121 52.42,19.422 -11.99,-19.532 -16.09,-36.219 -9.03,-38.121 6.89,-1.809 22.04,11.089 35.19,29.55 0.8,-20.32 6.83,-36.031 14.28,-36.101 7.65,-0.059 14.08,16.301 15.02,37.32 13.45,-19.328 29.22,-33.051 36.27,-31.23 6.89,1.761 3.1,17.75 -8.32,36.781 23.27,-14.129 45.04,-22.629 50.35,-19.34 5.44,3.359 -8.34,17.91 -31.17,33.34 31.01,-7.781 57.4,-10.508 60.31,-6.09 2.86,4.359 -17.66,14.059 -46.96,22.539 32.1,0.332 56.88,4.012 56.94,8.703" /><path
         id="path246"
         style="fill:#f6831d;fill-opacity:1;fill-rule:nonzero;stroke:none"
         d="m 2752.94,983.461 c -0.18,-19.781 -25.69,-35.582 -56.95,-35.289 -31.29,0.289 -56.5,16.547 -56.31,36.34 0.19,19.778 25.69,35.558 56.98,35.268 31.26,-0.29 56.47,-16.54 56.28,-36.319" /><path
         id="path248"
         style="fill:#ffffff;fill-opacity:1;fill-rule:nonzero;stroke:none"
         d="m 2627.89,382.488 c 0.04,4.821 -25.89,9.043 -59.12,9.821 30.41,8.351 51.96,18.179 49.03,22.671 -2.86,4.36 -28.07,2.122 -58.1,-4.921 22.15,14.582 35.41,28.261 30.17,31.66 -5.37,3.48 -28.26,-5.129 -52.43,-19.43 12,19.551 16.1,36.203 9.03,38.09 -6.89,1.84 -22.05,-11.047 -35.21,-29.5 -0.79,20.32 -6.8,35.992 -14.25,36.09 -7.65,0.07 -14.09,-16.289 -15.03,-37.297 -13.44,19.297 -29.21,33.019 -36.26,31.207 -6.91,-1.789 -3.1,-17.738 8.31,-36.797 -23.27,14.16 -45.04,22.648 -50.34,19.348 -5.45,-3.328 8.33,-17.899 31.17,-33.309 -31.02,7.758 -57.42,10.5 -60.33,6.051 -2.85,-4.363 17.68,-14.024 46.98,-22.52 -32.11,-0.343 -56.89,-3.992 -56.94,-8.711 -0.05,-4.839 25.88,-9.043 59.13,-9.82 -30.42,-8.32 -51.98,-18.199 -49.06,-22.691 2.87,-4.36 28.08,-2.098 58.12,4.972 -22.15,-14.632 -35.42,-28.312 -30.18,-31.711 5.38,-3.461 28.26,5.129 52.43,19.45 -11.99,-19.571 -16.09,-36.219 -9.03,-38.11 6.89,-1.84 22.04,11.039 35.2,29.52 0.79,-20.34 6.82,-36.012 14.27,-36.102 7.65,-0.078 14.08,16.281 15.01,37.313 13.46,-19.321 29.23,-33.063 36.27,-31.231 6.9,1.77 3.11,17.739 -8.31,36.797 23.27,-14.109 45.05,-22.629 50.35,-19.367 5.44,3.379 -8.35,17.937 -31.18,33.328 31.01,-7.738 57.41,-10.5 60.33,-6.027 2.85,4.34 -17.67,14.027 -46.98,22.539 32.11,0.301 56.89,3.988 56.95,8.687" /><path
         id="path250"
         style="fill:#f6831d;fill-opacity:1;fill-rule:nonzero;stroke:none"
         d="m 2552.85,383.191 c -0.17,-19.769 -25.69,-35.582 -56.96,-35.293 -31.28,0.282 -56.48,16.563 -56.3,36.34 0.19,19.754 25.69,35.563 56.97,35.293 31.28,-0.312 56.48,-16.582 56.29,-36.34" /><path
         id="path252"
         style="fill:#ffffff;fill-opacity:1;fill-rule:nonzero;stroke:none"
         d="m 3641.74,302.969 c 0.05,4.82 -25.89,9.043 -59.12,9.82 30.41,8.352 51.96,18.203 49.05,22.672 -2.88,4.359 -28.09,2.121 -58.12,-4.922 22.15,14.582 35.41,28.262 30.17,31.68 -5.37,3.429 -28.25,-5.129 -52.43,-19.449 12,19.55 16.11,36.191 9.03,38.089 -6.9,1.852 -22.04,-11.039 -35.2,-29.5 -0.8,20.313 -6.8,36.012 -14.27,36.09 -7.63,0.071 -14.08,-16.289 -15.02,-37.301 -13.44,19.321 -29.21,33.043 -36.26,31.211 -6.89,-1.769 -3.1,-17.738 8.32,-36.8 -23.27,14.152 -45.05,22.671 -50.36,19.363 -5.44,-3.371 8.35,-17.922 31.19,-33.332 -31.02,7.769 -57.42,10.512 -60.34,6.039 -2.84,-4.348 17.68,-14.008 46.99,-22.5 -32.12,-0.348 -56.9,-3.988 -56.95,-8.707 -0.05,-4.84 25.88,-9.063 59.13,-9.84 -30.42,-8.32 -51.98,-18.16 -49.05,-22.672 2.86,-4.371 28.08,-2.101 58.11,4.961 -22.15,-14.601 -35.41,-28.301 -30.17,-31.68 5.38,-3.492 28.25,5.129 52.42,19.418 -11.99,-19.57 -16.09,-36.218 -9.02,-38.109 6.88,-1.828 22.04,11.039 35.19,29.52 0.8,-20.329 6.82,-36.008 14.28,-36.059 7.64,-0.109 14.07,16.25 15.01,37.258 13.45,-19.321 29.22,-33.028 36.27,-31.207 6.9,1.789 3.1,17.738 -8.32,36.797 23.27,-14.118 45.04,-22.629 50.36,-19.379 5.43,3.41 -8.34,17.949 -31.18,33.359 31.01,-7.758 57.41,-10.527 60.33,-6.051 2.84,4.344 -17.68,14.024 -46.98,22.543 32.11,0.297 56.88,3.969 56.94,8.688" /><path
         id="path254"
         style="fill:#f6831d;fill-opacity:1;fill-rule:nonzero;stroke:none"
         d="m 3566.7,303.672 c -0.17,-19.781 -25.68,-35.59 -56.95,-35.293 -31.29,0.281 -56.49,16.562 -56.31,36.363 0.19,19.75 25.69,35.547 56.98,35.27 31.27,-0.293 56.47,-16.582 56.28,-36.34" /><path
         id="path256"
         style="fill:#ffffff;fill-opacity:1;fill-rule:nonzero;stroke:none"
         d="m 4795.43,126.039 c 0.02,4.82 -25.9,9.051 -59.15,9.832 30.43,8.34 51.96,18.211 49.05,22.649 -2.86,4.378 -28.07,2.128 -58.11,-4.918 22.15,14.589 35.42,28.269 30.16,31.687 -5.36,3.461 -28.25,-5.129 -52.41,-19.449 11.99,19.551 16.11,36.199 9.02,38.09 -6.9,1.859 -22.04,-11.039 -35.2,-29.5 -0.79,20.32 -6.81,36.039 -14.26,36.101 -7.65,0.051 -14.09,-16.301 -15.02,-37.312 -13.46,19.301 -29.22,33.043 -36.26,31.211 -6.9,-1.758 -3.11,-17.739 8.3,-36.789 -23.26,14.148 -45.04,22.648 -50.35,19.359 -5.44,-3.359 8.35,-17.918 31.19,-33.328 -31.02,7.758 -57.41,10.5 -60.32,6.058 -2.86,-4.371 17.66,-14.039 46.97,-22.519 -32.12,-0.359 -56.9,-4 -56.94,-8.711 -0.06,-4.848 25.88,-9.051 59.13,-9.84 -30.43,-8.32 -51.98,-18.191 -49.05,-22.6678 2.86,-4.3828 28.07,-2.1133 58.09,4.9568 -22.14,-14.6287 -35.4,-28.3084 -30.16,-31.6873 5.38,-3.4804 28.25,5.1289 52.41,19.4297 -11.97,-19.5703 -16.06,-36.2226 -9.02,-38.1094 6.9,-1.8437 22.04,11.0391 35.2,29.5196 0.79,-20.3399 6.83,-36.0196 14.28,-36.0821 7.63,-0.0976 14.07,16.2618 15.02,37.3008 13.44,-19.3281 29.22,-33.0312 36.26,-31.2383 6.9,1.7891 3.09,17.7383 -8.32,36.7891 23.28,-14.1094 45.06,-22.6094 50.35,-19.3594 5.44,3.3985 -8.32,17.9492 -31.17,33.3593 31,-7.7616 57.42,-10.5312 60.32,-6.0702 2.84,4.3594 -17.68,14.0392 -46.97,22.5392 32.12,0.32 56.88,4.012 56.96,8.699" /><path
         id="path258"
         style="fill:#f6831d;fill-opacity:1;fill-rule:nonzero;stroke:none"
         d="m 4720.38,126.738 c -0.17,-19.777 -25.69,-35.5778 -56.94,-35.2966 -31.3,0.2969 -56.5,16.5786 -56.33,36.3676 0.2,19.742 25.69,35.543 56.98,35.273 31.28,-0.293 56.48,-16.59 56.29,-36.344" /><path
         id="path260"
         style="fill:#ffffff;fill-opacity:1;fill-rule:nonzero;stroke:none"
         d="m 3301.01,730.559 c 0.32,9.019 -48.09,18.191 -110.39,21.242 57.42,14.168 98.33,31.621 93.05,40.148 -5.17,8.34 -52.56,5.313 -109.18,-6.488 42.2,26.328 67.72,51.359 58.06,58 -9.91,6.75 -53.22,-8.289 -99.23,-33.961 23.42,36.082 31.91,67.121 18.74,71.02 -12.85,3.789 -41.85,-19.7 -67.4,-53.68 -0.52,38.14 -11.04,67.871 -25.05,68.34 -14.32,0.519 -27.19,-29.848 -29.95,-69.219 -24.28,36.859 -53.2,63.309 -66.5,60.258 -13.04,-2.969 -6.65,-33.11 13.83,-69.387 -42.93,27.609 -83.39,44.617 -93.48,38.719 -10.37,-6.059 14.79,-34.02 56.88,-64 -57.8,16.058 -107.16,22.441 -112.85,14.219 -5.53,-8.04 32.48,-27.149 87.03,-44.461 -60.25,0.91 -106.89,-4.778 -107.19,-13.637 -0.33,-9.043 48.09,-18.192 110.39,-21.242 -57.44,-14.168 -98.34,-31.598 -93.07,-40.168 5.18,-8.34 52.58,-5.293 109.24,6.527 -42.24,-26.328 -67.79,-51.367 -58.12,-57.969 9.93,-6.8 53.24,8.219 99.23,33.93 -23.41,-36.09 -31.91,-67.16 -18.75,-71.039 12.86,-3.75 41.87,19.68 67.41,53.68 0.54,-38.18 11.06,-67.871 25.05,-68.36 14.35,-0.5 27.18,29.867 29.96,69.231 24.31,-36.871 53.21,-63.332 66.51,-60.27 13,2.988 6.66,33.129 -13.85,69.406 42.96,-27.609 83.4,-44.578 93.5,-38.718 10.37,6.039 -14.77,34 -56.86,63.968 57.77,-16.007 107.15,-22.41 112.81,-14.187 5.55,7.988 -32.47,27.168 -86.99,44.469 60.24,-0.938 106.86,4.769 107.17,13.629" /><path
         id="path262"
         style="fill:#f6831d;fill-opacity:1;fill-rule:nonzero;stroke:none"
         d="m 3160.34,735.422 c -1.29,-37.094 -49.85,-65.481 -108.47,-63.422 -58.65,2.02 -105.13,33.73 -103.84,70.789 1.28,37.082 49.85,65.52 108.5,63.461 58.63,-2.02 105.12,-33.77 103.81,-70.828" /></g></g></svg>